<svg viewBox="0 0 16 16" fill="none" xmlns="http://www.w3.org/2000/svg">
<path d="M6.12831 4.68499C6.00414 4.8099 5.93445 4.97887 5.93445 5.15499C5.93445 5.33112 6.00414 5.50008 6.12831 5.62499L8.48831 8.01833L6.12831 10.3783C6.00414 10.5032 5.93445 10.6722 5.93445 10.8483C5.93445 11.0244 6.00414 11.1934 6.12831 11.3183C6.19029 11.3808 6.26402 11.4304 6.34526 11.4643C6.4265 11.4981 6.51364 11.5155 6.60164 11.5155C6.68965 11.5155 6.77679 11.4981 6.85803 11.4643C6.93927 11.4304 7.013 11.3808 7.07498 11.3183L9.90164 8.49166C9.96413 8.42968 10.0137 8.35595 10.0476 8.27471C10.0814 8.19347 10.0988 8.10633 10.0988 8.01833C10.0988 7.93032 10.0814 7.84318 10.0476 7.76194C10.0137 7.6807 9.96413 7.60697 9.90164 7.54499L7.07498 4.68499C7.013 4.62251 6.93927 4.57291 6.85803 4.53907C6.77679 4.50522 6.68965 4.48779 6.60164 4.48779C6.51364 4.48779 6.4265 4.50522 6.34526 4.53907C6.26402 4.57291 6.19029 4.62251 6.12831 4.68499Z" fill="#919191"/>
</svg>
