<svg viewBox="0 0 400 400" fill="none" xmlns="http://www.w3.org/2000/svg">
<path d="M102.106 214.913C109.558 212.072 115.197 201.845 117.164 194.633C117.776 192.404 122.103 176.428 114.126 166.638C107.395 158.377 97.8227 161.764 95.0254 155.339C91.9658 148.324 100.598 141.09 101.997 134.578C104.117 124.59 94.042 121.094 87.7917 115.98C77.9136 107.916 82.5904 98.1686 88.2725 88.9243C91.0043 84.4879 93.9546 79.2211 93.3863 73.8012C92.7963 68.2066 88.7751 64.3384 89.7586 58.11C90.3923 54.1325 92.4248 50.3736 92.3811 46.3524C92.3155 41.916 89.7804 37.9604 87.3109 34.2671C81.1043 25.0009 74.9415 9.55007 63.774 5.94414C50.6834 1.74815 38.904 11.801 31.9981 21.9851C25.2233 31.885 26.0101 45.675 17.3121 54.4385C14.0559 57.7166 9.75059 59.8146 6.60359 63.1801C-4.34533 74.9595 6.01353 90.76 13.6406 101.031C19.1479 108.418 24.7862 116.985 22.426 126.623C21.7048 129.529 20.3498 132.327 20.3936 135.321C20.481 144.609 28.9167 149.941 36.7623 152.717C40.9583 154.203 45.351 155.12 49.7437 155.689C52.9125 156.104 59.7965 155.361 61.4575 158.814C62.1568 160.278 61.5449 162.026 60.7581 163.447C59.1846 166.244 56.8681 168.67 55.7535 171.686C48.4543 191.202 85.0599 193.387 95.6592 196.884C98.085 197.692 100.598 198.676 102.194 200.686C105.756 205.079 102.915 210.215 102.106 214.913Z" fill="white"/>
<path d="M102.106 215.394C101.997 215.394 101.888 215.351 101.8 215.285C101.669 215.176 101.604 215.001 101.625 214.826C101.822 213.69 102.128 212.532 102.434 211.395C103.439 207.658 104.379 204.14 101.8 200.949C100.227 199.004 97.7136 198.042 95.4845 197.321C93.3865 196.622 90.2176 195.988 86.568 195.245C75.4224 192.972 60.1463 189.847 55.6007 181.63C53.9616 178.679 53.8523 175.27 55.2729 171.489C55.994 169.588 57.1742 167.905 58.3106 166.288C59.0099 165.283 59.7311 164.256 60.3212 163.207C61.2827 161.502 61.5231 160.082 60.9986 159.033C59.8404 156.629 55.4914 156.476 52.3225 156.345C51.3391 156.301 50.3994 156.279 49.6563 156.17C44.8703 155.558 40.4776 154.553 36.5657 153.176C30.381 150.99 19.9784 145.789 19.8692 135.343C19.8473 133.223 20.5029 131.212 21.1148 129.245C21.3989 128.349 21.683 127.432 21.9234 126.536C24.2181 117.16 18.8857 108.965 13.2255 101.338C4.37457 89.4491 -4.41079 74.326 6.23217 62.8744C7.91494 61.0824 9.92552 59.6182 11.8705 58.2195C13.6189 56.952 15.4109 55.6626 16.9407 54.1109C21.7268 49.303 23.6281 42.7686 25.4857 36.4746C26.9717 31.4045 28.5234 26.1595 31.5393 21.7231C35.0141 16.6092 47.6458 0.284189 63.8615 5.50733C72.625 8.30466 78.2853 18.1172 83.2899 26.7714C84.7978 29.3939 86.2183 31.8634 87.6607 34.0051C89.9335 37.3925 92.7527 41.6322 92.8183 46.3527C92.8401 48.8222 92.1189 51.2043 91.3977 53.5209C90.9169 55.0507 90.4362 56.6241 90.1958 58.1976C89.6276 61.738 90.7421 64.4698 91.9222 67.3545C92.7308 69.3433 93.5831 71.4194 93.8235 73.7796C94.4136 79.2869 91.4415 84.6411 88.6441 89.2087C83.0713 98.2781 78.4382 107.785 88.0541 115.63C89.4309 116.745 91.0262 117.816 92.556 118.843C98.2599 122.667 104.161 126.601 102.434 134.709C101.91 137.2 100.402 139.714 98.8063 142.358C96.2494 146.598 93.605 150.99 95.4408 155.186C96.7083 158.093 99.4182 158.836 102.871 159.776C106.652 160.803 110.913 161.983 114.476 166.354C121.819 175.358 119.109 189.235 117.601 194.786C115.809 201.408 110.236 212.357 102.259 215.394C102.237 215.373 102.172 215.394 102.106 215.394ZM57.5675 5.44176C44.914 5.44176 35.32 17.9423 32.3697 22.2476C29.4413 26.5529 27.9115 31.7323 26.4472 36.7369C24.5678 43.162 22.6009 49.8057 17.6619 54.7884C16.0884 56.3838 14.2526 57.695 12.4606 58.9844C10.5593 60.3612 8.57057 61.7817 6.97522 63.5301C-3.18696 74.4571 5.42357 89.1649 14.0341 100.769C19.5851 108.222 25.289 116.985 22.9069 126.754C22.6665 127.694 22.3824 128.634 22.0983 129.53C21.4645 131.496 20.8744 133.354 20.8963 135.321C21.0056 145.177 30.9929 150.16 36.9372 152.258C40.7617 153.613 45.1107 154.596 49.8312 155.208C50.5305 155.296 51.4484 155.339 52.41 155.361C56.0159 155.492 60.496 155.667 61.9165 158.596C62.5721 159.95 62.3317 161.655 61.1953 163.666C60.5834 164.758 59.8404 165.807 59.1192 166.835C57.9609 168.474 56.8682 170.025 56.2126 171.839C54.9013 175.336 54.9887 178.483 56.4967 181.171C60.8238 188.995 75.8376 192.054 86.8084 194.305C90.5017 195.048 93.6706 195.704 95.8341 196.425C98.3692 197.256 100.948 198.326 102.609 200.381C105.494 203.965 104.445 207.877 103.418 211.679C103.199 212.532 102.98 213.34 102.806 214.149C110.017 210.827 115.066 200.73 116.749 194.524C117.885 190.306 121.054 175.86 113.798 166.966C110.433 162.813 106.302 161.699 102.674 160.694C99.1341 159.732 96.0745 158.88 94.6103 155.558C92.5779 150.903 95.3533 146.292 98.0414 141.833C99.593 139.255 101.057 136.829 101.56 134.49C103.155 127.038 97.5388 123.279 92.0971 119.63C90.5454 118.581 88.9282 117.51 87.5077 116.352C77.28 108.003 82.3501 97.6881 87.8792 88.6842C90.611 84.2478 93.4739 79.0683 92.9275 73.8452C92.6871 71.6161 91.8785 69.6274 91.0918 67.6823C89.9117 64.7976 88.7097 61.8254 89.2997 58.0228C89.562 56.3838 90.0646 54.7665 90.5454 53.2149C91.2666 50.8765 91.9441 48.6692 91.9222 46.3527C91.8567 41.9163 89.1249 37.8296 86.9395 34.5296C85.4753 32.3661 84.0548 29.8747 82.525 27.2522C77.6078 18.7509 72.035 9.11326 63.643 6.4252C61.5231 5.72586 59.5126 5.44176 57.5675 5.44176Z" fill="black"/>
<path d="M97.4731 223.983C97.342 223.983 97.2108 223.939 97.1234 223.83C96.9486 223.633 96.9486 223.327 97.1671 223.152C100.161 220.443 104.117 215.525 106.105 207.527C106.215 207.046 108.968 195.573 105.166 183.072C101.909 172.342 95.7466 166.965 87.2453 159.513C83.1368 155.929 78.4818 151.864 73.4554 146.532C66.8554 139.539 46.7933 118.296 40.3682 94.3442C36.653 80.4668 37.549 65.7153 43.0344 50.5048C46.2251 41.6976 50.9675 32.7592 56.8025 24.7169C56.9555 24.4984 57.2615 24.4547 57.48 24.6077C57.6986 24.7606 57.7423 25.0666 57.5893 25.2851C49.9622 35.8188 33.1345 63.6173 41.2861 94.1038C47.6238 117.772 67.5766 138.905 74.1329 145.833C79.1375 151.121 83.7705 155.186 87.8573 158.748C96.1618 166.004 102.74 171.752 106.062 182.744C109.864 195.288 107.307 206.478 107.001 207.723C104.969 215.962 100.86 221.033 97.779 223.852C97.6916 223.939 97.5823 223.983 97.4731 223.983Z" fill="black"/>
<path d="M95.1787 233.599C95.5283 232.987 104.467 232.725 105.712 232.484C109.209 231.807 112.662 230.802 115.984 229.447C121.972 226.999 127.61 223.415 131.959 218.563C136.002 214.039 136.92 210.128 138.188 204.533C139.783 197.452 142.602 191.508 142.493 184.034C142.405 176.101 138.974 168.605 139.018 160.672C139.062 153.416 143.739 147.494 145.924 140.806C148.262 133.594 147.716 125.661 145.531 118.384C143.105 110.32 139.084 100.682 132.331 95.3715C126.823 91.0663 116.727 88.6404 115.743 80.4888C115.35 77.1452 116.945 73.9545 117.973 70.7419C120.792 62.044 118.431 54.6791 115.809 46.4183C113.318 38.5726 107.832 30.9237 99.8992 27.9515C79.247 20.1933 51.2081 45.3474 60.1465 66.2181C63.4027 73.8015 63.0312 82.8491 59.1849 90.1702C57.5458 93.2735 55.3167 96.0708 54.071 99.349C50.6618 108.287 57.524 116.57 64.0365 121.662C70.4398 126.667 78.5258 131.737 79.1814 140.697C79.837 149.876 72.057 151.471 72.7345 160.388C73.8709 175.03 95.419 177.456 102.5 193.54C105.953 201.342 106.543 213.646 95.1787 233.599Z" fill="white"/>
<path d="M95.1785 234.08C95.091 234.08 95.0255 234.058 94.9381 234.014C94.6977 233.883 94.6321 233.599 94.7632 233.358C104.029 217.099 106.499 203.768 102.084 193.737C98.7844 186.241 92.3593 181.805 86.1746 177.521C79.3561 172.801 72.9091 168.364 72.2972 160.431C71.9475 155.842 73.7833 153.088 75.5535 150.422C77.3455 147.734 79.0501 145.177 78.7442 140.741C78.1978 133.026 72.0131 128.306 66.0251 123.76C65.2602 123.192 64.5171 122.602 63.7959 122.034C59.4251 118.624 49.7219 109.555 53.6775 99.1741C54.4642 97.0979 55.6443 95.1966 56.8026 93.3609C57.4801 92.2463 58.2013 91.1099 58.8132 89.9516C62.6158 82.7179 62.9873 73.9326 59.7529 66.4147C55.8192 57.2578 58.5509 46.4619 67.074 37.5454C74.9415 29.3064 88.207 23.0124 100.139 27.4925C107.417 30.2243 113.47 37.2613 116.333 46.2652L116.377 46.3963C118.934 54.4605 121.338 62.0658 118.497 70.873C118.278 71.5723 118.016 72.2716 117.776 72.9491C116.901 75.3749 115.984 77.8882 116.29 80.4014C116.967 85.9305 122.059 88.7278 126.976 91.4377C129.074 92.596 131.041 93.6668 132.68 94.9562C138.231 99.3052 142.711 107.129 146.033 118.209C147.738 123.869 149.18 132.414 146.426 140.915C145.64 143.319 144.547 145.636 143.476 147.887C141.466 152.083 139.586 156.06 139.564 160.65C139.542 164.627 140.438 168.605 141.291 172.451C142.121 176.188 142.995 180.056 143.039 183.99C143.105 189.191 141.815 193.562 140.46 198.195C139.848 200.271 139.215 202.391 138.712 204.62C137.51 209.975 136.548 214.192 132.374 218.869C128.287 223.437 122.715 227.239 116.224 229.884C112.968 231.217 109.493 232.244 105.865 232.943C105.406 233.031 104.073 233.118 102.39 233.227C100.074 233.38 96.2056 233.621 95.5937 233.905C95.4189 234.036 95.3096 234.08 95.1785 234.08ZM91.7255 26.9899C82.6342 26.9899 73.6084 32.06 67.7078 38.2229C59.4688 46.8334 56.8026 57.236 60.5834 66.0432C63.9271 73.8233 63.5555 82.9146 59.5999 90.4106C58.9662 91.5907 58.245 92.749 57.5456 93.8854C56.4311 95.6774 55.2728 97.5569 54.5079 99.5456C50.7709 109.336 60.1244 118.034 64.3204 121.312C65.0416 121.881 65.7847 122.449 66.5495 123.017C72.4065 127.475 79.0501 132.523 79.6402 140.697C79.9898 145.483 78.1104 148.28 76.2965 150.99C74.5263 153.635 72.8654 156.126 73.1932 160.388C73.7833 167.862 79.7494 171.992 86.6553 176.756C92.6871 180.909 99.5056 185.629 102.915 193.387C107.351 203.484 105.078 216.771 96.14 232.834C97.189 232.681 99.0029 232.528 102.237 232.309C103.745 232.222 105.188 232.113 105.603 232.047C109.165 231.348 112.596 230.343 115.787 229.031C122.125 226.453 127.588 222.715 131.566 218.257C135.587 213.777 136.461 209.865 137.685 204.445C138.187 202.194 138.821 200.053 139.433 197.955C140.766 193.387 142.034 189.082 141.99 184.034C141.946 180.209 141.094 176.385 140.264 172.691C139.389 168.801 138.493 164.78 138.515 160.672C138.537 155.886 140.57 151.624 142.536 147.515C143.585 145.286 144.678 142.992 145.443 140.653C148.109 132.392 146.711 124.066 145.05 118.515C141.793 107.632 137.401 99.9608 132.025 95.743C130.451 94.5191 128.506 93.4483 126.452 92.3119C121.556 89.6238 115.984 86.5642 115.262 80.5325C114.935 77.8007 115.874 75.1782 116.792 72.6432C117.033 71.9657 117.295 71.2663 117.513 70.5889C120.267 62.0876 118.016 54.9413 115.394 46.7023L115.35 46.5712C112.596 37.8295 106.739 31.0547 99.746 28.4104C97.1235 27.427 94.4136 26.9899 91.7255 26.9899Z" fill="black"/>
<path d="M91.5509 236.877C91.3979 236.877 91.223 236.79 91.1356 236.637C91.0045 236.418 91.0701 236.112 91.2886 235.981C97.8448 232.003 103.374 226.89 107.723 220.727C113.973 211.898 117.317 202.479 117.645 192.732C117.994 182.591 114.891 175.401 109.777 163.513C106.215 155.23 103.439 150.903 100.751 146.729C98.1071 142.62 95.6157 138.752 92.5561 131.518C90.0211 125.552 85.3224 114.45 84.1642 100.136C83.0059 85.7993 85.8469 70.72 92.3595 56.5585C92.4687 56.3181 92.7528 56.2088 92.9932 56.3181C93.2336 56.4274 93.3429 56.7115 93.2336 56.9519C86.7867 70.9822 83.9893 85.8867 85.1257 100.048C86.2621 114.188 90.9389 125.202 93.4303 131.125C96.468 138.293 98.9375 142.139 101.56 146.204C104.27 150.422 107.067 154.771 110.651 163.119C115.831 175.161 118.956 182.416 118.606 192.775C118.278 202.697 114.869 212.291 108.51 221.295C104.073 227.545 98.4568 232.768 91.7912 236.811C91.7257 236.855 91.6383 236.877 91.5509 236.877Z" fill="black"/>
<path d="M311.534 52.9744H120.507C114.476 52.9744 109.187 58.2412 108.662 64.7537L86.4368 343.962C85.9123 350.475 90.3924 355.742 96.4023 355.742H287.429C293.461 355.742 298.75 350.475 299.274 343.962L321.5 64.7537C322.024 58.2631 317.544 52.9744 311.534 52.9744Z" fill="black"/>
<path d="M287.429 356.222H96.4025C93.5177 356.222 90.8515 355.064 88.9065 352.944C86.7648 350.628 85.6939 347.328 85.9562 343.919L108.182 64.7101C108.728 57.979 114.257 52.4937 120.508 52.4937H311.535C314.419 52.4937 317.086 53.6519 319.031 55.7718C321.172 58.0883 322.243 61.3883 321.981 64.7975L299.755 344.006C299.231 350.737 293.702 356.222 287.429 356.222ZM120.508 53.4552C114.738 53.4552 109.646 58.5472 109.143 64.7975L86.9178 344.006C86.6774 347.153 87.639 350.169 89.6058 352.289C91.376 354.212 93.78 355.261 96.4025 355.261H287.429C293.199 355.261 298.291 350.169 298.794 343.919L321.019 64.7101C321.26 61.5631 320.298 58.5472 318.331 56.4274C316.561 54.5042 314.157 53.4552 311.535 53.4552H120.508Z" fill="black"/>
<path d="M305.284 51.6414H114.257C108.226 51.6414 102.937 56.9738 102.412 63.53L80.3397 345.383C79.8152 351.961 84.2952 357.271 90.327 357.271H281.354C287.386 357.271 292.674 351.939 293.199 345.383L315.272 63.53C315.774 56.9519 311.316 51.6414 305.284 51.6414Z" fill="white"/>
<path d="M281.354 357.752H90.3488C87.4859 357.752 84.8197 356.594 82.8746 354.474C80.7111 352.136 79.6184 348.792 79.8806 345.339L101.953 63.4864C102.478 56.6897 108.007 51.1606 114.279 51.1606H305.306C308.169 51.1606 310.835 52.3189 312.78 54.4388C314.944 56.7772 316.036 60.1209 315.774 63.5738L293.701 345.427C293.155 352.223 287.626 357.752 281.354 357.752ZM114.257 52.1222C108.488 52.1222 103.396 57.258 102.893 63.5738L80.8203 345.427C80.5799 348.617 81.5634 351.699 83.5521 353.84C85.3223 355.742 87.7263 356.791 90.305 356.791H281.332C287.102 356.791 292.194 351.655 292.696 345.339L314.769 63.4864C315.009 60.2957 314.026 57.2142 312.037 55.0725C310.267 53.1712 307.863 52.1222 305.284 52.1222H114.257Z" fill="black"/>
<path d="M271.651 326.763H104.838L124.9 70.5015H291.691L271.651 326.763Z" fill="white"/>
<path d="M257.577 101.927H156.938C156.807 101.927 156.676 101.862 156.567 101.774C156.48 101.665 156.436 101.534 156.458 101.403L157.397 93.601C157.419 93.3606 157.638 93.1858 157.878 93.1858H258.516C258.648 93.1858 258.779 93.2513 258.888 93.3388C258.975 93.448 259.019 93.5792 258.997 93.7103L258.058 101.512C258.014 101.731 257.817 101.927 257.577 101.927ZM157.485 100.966H257.14L257.97 94.1255H158.315L157.485 100.966Z" fill="black"/>
<path d="M256.724 114.45H156.086C155.955 114.45 155.824 114.384 155.715 114.297C155.627 114.188 155.584 114.057 155.605 113.925L156.545 106.123C156.567 105.883 156.785 105.708 157.026 105.708H257.664C257.795 105.708 257.926 105.774 258.036 105.861C258.123 105.971 258.167 106.102 258.145 106.233L257.205 114.035C257.162 114.275 256.965 114.45 256.724 114.45ZM156.632 113.488H256.287L257.118 106.648H157.463L156.632 113.488Z" fill="black"/>
<path d="M144.656 328.424C144.394 328.424 144.176 328.205 144.176 327.943C144.176 327.681 144.394 327.462 144.656 327.462L240.727 326.807C240.989 326.807 241.208 327.025 241.208 327.287C241.208 327.55 240.989 327.768 240.727 327.768L144.656 328.424Z" fill="black"/>
<path d="M285.397 152.279C285.375 152.279 285.375 152.279 285.353 152.279C285.091 152.258 284.894 152.017 284.916 151.755L291.167 70.9821H125.337L119.721 138.664C119.699 138.927 119.459 139.123 119.196 139.101C118.934 139.08 118.737 138.839 118.759 138.577L124.42 70.4576C124.441 70.2172 124.66 70.0205 124.9 70.0205H291.713C291.844 70.0205 291.975 70.0861 292.063 70.1735C292.15 70.2827 292.194 70.4139 292.194 70.545L285.9 151.842C285.856 152.083 285.659 152.279 285.397 152.279Z" fill="black"/>
<path d="M198.789 134.25H163.473C163.211 134.25 162.992 134.031 162.992 133.769C162.992 133.507 163.211 133.288 163.473 133.288H198.352L198.877 127.344H146.645C146.383 127.344 146.164 127.125 146.164 126.863C146.164 126.601 146.383 126.382 146.645 126.382H199.423C199.554 126.382 199.685 126.448 199.773 126.535C199.86 126.645 199.904 126.776 199.904 126.907L199.292 133.813C199.248 134.075 199.051 134.25 198.789 134.25Z" fill="black"/>
<path d="M197.587 145.33H156.086C155.824 145.33 155.605 145.111 155.605 144.849C155.605 144.587 155.824 144.368 156.086 144.368H197.128L197.653 138.424H159.036C158.774 138.424 158.556 138.205 158.556 137.943C158.556 137.681 158.774 137.462 159.036 137.462H198.177C198.308 137.462 198.439 137.528 198.527 137.615C198.614 137.703 198.658 137.856 198.658 137.987L198.046 144.893C198.046 145.133 197.828 145.33 197.587 145.33Z" fill="black"/>
<path d="M196.363 156.279H148.219C147.956 156.279 147.738 156.06 147.738 155.798C147.738 155.536 147.956 155.317 148.219 155.317H195.948L196.473 149.373H152.152C151.89 149.373 151.672 149.154 151.672 148.892C151.672 148.63 151.89 148.411 152.152 148.411H196.975C197.106 148.411 197.238 148.477 197.325 148.564C197.412 148.674 197.456 148.805 197.456 148.936L196.844 155.842C196.822 156.082 196.626 156.279 196.363 156.279Z" fill="black"/>
<path d="M139.652 166.397H130.254L130.866 159.491H140.264L139.652 166.397Z" fill="white"/>
<path d="M195.686 166.878H150.186C149.923 166.878 149.705 166.659 149.705 166.397C149.705 166.135 149.923 165.916 150.186 165.916H195.249L195.773 159.972H150.186C149.923 159.972 149.705 159.754 149.705 159.491C149.705 159.229 149.923 159.01 150.186 159.01H196.298C196.429 159.01 196.56 159.076 196.647 159.163C196.735 159.273 196.779 159.404 196.779 159.535L196.167 166.441C196.145 166.681 195.926 166.878 195.686 166.878Z" fill="black"/>
<path d="M138.45 177.346H129.053L129.664 170.44H139.062L138.45 177.346Z" fill="white"/>
<path d="M194.462 177.827H150.164C149.901 177.827 149.683 177.609 149.683 177.346C149.683 177.084 149.901 176.866 150.164 176.866H194.025L194.549 170.921H150.164C149.901 170.921 149.683 170.703 149.683 170.44C149.683 170.178 149.901 169.96 150.164 169.96H195.074C195.205 169.96 195.336 170.025 195.424 170.113C195.511 170.222 195.555 170.353 195.555 170.484L194.943 177.39C194.921 177.652 194.724 177.827 194.462 177.827Z" fill="black"/>
<path d="M218.939 134.097H209.542C209.41 134.097 209.279 134.031 209.192 133.944C209.104 133.835 209.061 133.704 209.061 133.572L209.673 126.667C209.695 126.426 209.913 126.229 210.153 126.229H219.551C219.682 126.229 219.813 126.295 219.9 126.382C219.988 126.492 220.032 126.623 220.032 126.754L219.42 133.66C219.398 133.9 219.201 134.097 218.939 134.097ZM210.088 133.135H218.524L219.048 127.191H210.612L210.088 133.135Z" fill="black"/>
<path d="M274.973 134.097H222.195C222.064 134.097 221.933 134.031 221.845 133.944C221.758 133.835 221.714 133.704 221.714 133.572L222.326 126.667C222.348 126.426 222.567 126.229 222.807 126.229H275.585C275.716 126.229 275.847 126.295 275.934 126.382C276.022 126.492 276.065 126.623 276.065 126.754L275.454 133.66C275.432 133.9 275.213 134.097 274.973 134.097ZM222.72 133.135H274.514L275.038 127.191H223.244L222.72 133.135Z" fill="black"/>
<path d="M217.737 145.177H208.34C208.208 145.177 208.077 145.111 207.99 145.024C207.903 144.915 207.859 144.784 207.859 144.652L208.471 137.747C208.493 137.506 208.711 137.309 208.952 137.309H218.349C218.48 137.309 218.611 137.375 218.698 137.462C218.786 137.572 218.83 137.703 218.83 137.834L218.218 144.74C218.196 144.98 217.977 145.177 217.737 145.177ZM208.864 144.194H217.3L217.824 138.249H209.389L208.864 144.194Z" fill="black"/>
<path d="M273.749 145.177H220.993C220.862 145.177 220.731 145.111 220.643 145.024C220.556 144.915 220.512 144.784 220.512 144.652L221.124 137.747C221.146 137.506 221.365 137.309 221.605 137.309H274.383C274.514 137.309 274.645 137.375 274.732 137.462C274.82 137.572 274.863 137.703 274.863 137.834L274.252 144.74C274.208 144.98 273.989 145.177 273.749 145.177ZM221.517 144.194H273.312L273.836 138.249H222.042L221.517 144.194Z" fill="black"/>
<path d="M216.513 156.126H207.116C206.985 156.126 206.853 156.06 206.766 155.973C206.679 155.864 206.635 155.733 206.635 155.601L207.247 148.696C207.269 148.455 207.487 148.258 207.728 148.258H217.125C217.256 148.258 217.387 148.324 217.475 148.411C217.562 148.521 217.606 148.652 217.606 148.783L216.994 155.689C216.972 155.929 216.775 156.126 216.513 156.126ZM207.662 155.164H216.098L216.622 149.22H208.187L207.662 155.164Z" fill="black"/>
<path d="M272.547 156.126H219.769C219.638 156.126 219.507 156.06 219.42 155.973C219.332 155.864 219.289 155.733 219.289 155.601L219.9 148.696C219.922 148.455 220.141 148.258 220.381 148.258H273.159C273.29 148.258 273.421 148.324 273.509 148.411C273.596 148.521 273.64 148.652 273.64 148.783L273.028 155.689C273.006 155.929 272.787 156.126 272.547 156.126ZM220.294 155.164H272.088L272.613 149.22H220.818L220.294 155.164Z" fill="black"/>
<path d="M215.836 166.725H206.438C206.307 166.725 206.176 166.66 206.089 166.572C206.001 166.463 205.957 166.332 205.957 166.201L206.569 159.295C206.591 159.054 206.81 158.858 207.05 158.858H216.447C216.579 158.858 216.71 158.923 216.797 159.011C216.885 159.12 216.928 159.251 216.928 159.382L216.316 166.288C216.294 166.528 216.076 166.725 215.836 166.725ZM206.963 165.764H215.398L215.923 159.819H207.487L206.963 165.764Z" fill="black"/>
<path d="M271.848 166.725H219.07C218.939 166.725 218.808 166.66 218.72 166.572C218.633 166.463 218.589 166.332 218.589 166.201L219.201 159.295C219.223 159.054 219.441 158.858 219.682 158.858H272.46C272.591 158.858 272.722 158.923 272.809 159.011C272.897 159.12 272.94 159.251 272.94 159.382L272.328 166.288C272.307 166.528 272.088 166.725 271.848 166.725ZM219.616 165.764H271.411L271.935 159.819H220.141L219.616 165.764Z" fill="black"/>
<path d="M214.612 177.674H205.214C205.083 177.674 204.952 177.608 204.865 177.521C204.777 177.412 204.734 177.281 204.734 177.15L205.346 170.244C205.367 170.003 205.586 169.807 205.826 169.807H215.224C215.355 169.807 215.486 169.872 215.573 169.959C215.661 170.069 215.704 170.2 215.704 170.331L215.093 177.237C215.071 177.477 214.874 177.674 214.612 177.674ZM205.761 176.712H214.197L214.721 170.768H206.285L205.761 176.712Z" fill="black"/>
<path d="M270.646 177.674H217.868C217.737 177.674 217.606 177.608 217.518 177.521C217.431 177.412 217.387 177.281 217.387 177.15L217.999 170.244C218.021 170.003 218.239 169.807 218.48 169.807H271.257C271.389 169.807 271.52 169.872 271.607 169.959C271.695 170.069 271.738 170.2 271.738 170.331L271.126 177.237C271.105 177.477 270.886 177.674 270.646 177.674ZM218.392 176.712H270.187L270.711 170.768H218.917L218.392 176.712Z" fill="black"/>
<path d="M214.131 200.184H204.733C204.602 200.184 204.471 200.118 204.384 200.031C204.296 199.922 204.252 199.79 204.252 199.659L204.864 192.753C204.886 192.513 205.105 192.316 205.345 192.316H214.742C214.874 192.316 215.005 192.382 215.092 192.469C215.18 192.579 215.223 192.71 215.223 192.841L214.611 199.747C214.589 199.987 214.393 200.184 214.131 200.184ZM205.28 199.222H213.715L214.24 193.278H205.804L205.28 199.222Z" fill="black"/>
<path d="M270.165 200.184H217.387C217.256 200.184 217.125 200.118 217.037 200.031C216.95 199.922 216.906 199.79 216.906 199.659L217.518 192.753C217.54 192.513 217.759 192.316 217.999 192.316H270.777C270.908 192.316 271.039 192.382 271.126 192.469C271.214 192.579 271.257 192.71 271.257 192.841L270.645 199.747C270.624 199.987 270.405 200.184 270.165 200.184ZM217.911 199.222H269.706L270.23 193.278H218.436L217.911 199.222Z" fill="black"/>
<path d="M212.929 211.264H203.531C203.4 211.264 203.269 211.198 203.182 211.111C203.094 211.002 203.051 210.87 203.051 210.739L203.663 203.833C203.684 203.593 203.903 203.396 204.143 203.396H213.541C213.672 203.396 213.803 203.462 213.89 203.549C213.978 203.659 214.021 203.79 214.021 203.921L213.409 210.827C213.388 211.067 213.169 211.264 212.929 211.264ZM204.056 210.28H212.492L213.016 204.336H204.58L204.056 210.28Z" fill="black"/>
<path d="M268.941 211.264H216.185C216.054 211.264 215.923 211.198 215.835 211.111C215.748 211.002 215.704 210.87 215.704 210.739L216.316 203.833C216.338 203.593 216.557 203.396 216.797 203.396H269.575C269.706 203.396 269.837 203.462 269.924 203.549C270.012 203.659 270.055 203.79 270.055 203.921L269.444 210.827C269.4 211.067 269.181 211.264 268.941 211.264ZM216.71 210.28H268.504L269.028 204.336H217.234L216.71 210.28Z" fill="black"/>
<path d="M211.705 222.213H202.308C202.176 222.213 202.045 222.147 201.958 222.06C201.87 221.95 201.827 221.819 201.827 221.688L202.439 214.782C202.46 214.542 202.679 214.345 202.919 214.345H212.317C212.448 214.345 212.579 214.411 212.666 214.498C212.754 214.607 212.797 214.739 212.797 214.87L212.186 221.776C212.164 222.016 211.967 222.213 211.705 222.213ZM202.854 221.251H211.29L211.814 215.307H203.378L202.854 221.251Z" fill="black"/>
<path d="M267.739 222.213H214.961C214.83 222.213 214.699 222.147 214.611 222.06C214.524 221.95 214.48 221.819 214.48 221.688L215.092 214.782C215.114 214.542 215.333 214.345 215.573 214.345H268.351C268.482 214.345 268.613 214.411 268.7 214.498C268.788 214.607 268.832 214.739 268.832 214.87L268.22 221.776C268.198 222.016 267.979 222.213 267.739 222.213ZM215.486 221.251H267.28L267.804 215.307H216.01L215.486 221.251Z" fill="black"/>
<path d="M211.027 232.812H201.63C201.499 232.812 201.368 232.746 201.28 232.659C201.193 232.55 201.149 232.419 201.149 232.288L201.761 225.382C201.783 225.141 202.002 224.945 202.242 224.945H211.639C211.77 224.945 211.902 225.01 211.989 225.098C212.076 225.207 212.12 225.338 212.12 225.469L211.508 232.375C211.486 232.615 211.268 232.812 211.027 232.812ZM202.155 231.85H210.59L211.115 225.906H202.679L202.155 231.85Z" fill="black"/>
<path d="M267.039 232.812H214.262C214.131 232.812 213.999 232.746 213.912 232.659C213.825 232.55 213.781 232.419 213.781 232.288L214.393 225.382C214.415 225.141 214.633 224.945 214.874 224.945H267.651C267.783 224.945 267.914 225.01 268.001 225.098C268.088 225.207 268.132 225.338 268.132 225.469L267.52 232.375C267.498 232.615 267.28 232.812 267.039 232.812ZM214.808 231.85H266.602L267.127 225.906H215.333L214.808 231.85Z" fill="black"/>
<path d="M209.803 243.761H200.406C200.275 243.761 200.144 243.695 200.057 243.608C199.969 243.499 199.925 243.368 199.925 243.236L200.537 236.331C200.559 236.09 200.778 235.893 201.018 235.893H210.415C210.546 235.893 210.678 235.959 210.765 236.046C210.852 236.156 210.896 236.287 210.896 236.418L210.284 243.324C210.262 243.564 210.066 243.761 209.803 243.761ZM200.953 242.799H209.388L209.913 236.855H201.477L200.953 242.799Z" fill="black"/>
<path d="M265.837 243.761H213.06C212.929 243.761 212.798 243.695 212.71 243.608C212.623 243.499 212.579 243.368 212.579 243.236L213.191 236.331C213.213 236.09 213.431 235.893 213.672 235.893H266.449C266.581 235.893 266.712 235.959 266.799 236.046C266.887 236.156 266.93 236.287 266.93 236.418L266.318 243.324C266.296 243.564 266.078 243.761 265.837 243.761ZM213.584 242.799H265.379L265.903 236.855H214.109L213.584 242.799Z" fill="black"/>
<path d="M137.313 200.14H127.916C127.785 200.14 127.654 200.074 127.566 199.987C127.479 199.878 127.435 199.747 127.435 199.616L128.047 192.71C128.069 192.469 128.288 192.273 128.528 192.273H137.925C138.056 192.273 138.188 192.338 138.275 192.426C138.362 192.535 138.406 192.666 138.406 192.797L137.794 199.703C137.772 199.965 137.554 200.14 137.313 200.14ZM128.441 199.178H136.876L137.401 193.234H128.965L128.441 199.178Z" fill="black"/>
<path d="M193.325 200.14H140.57C140.438 200.14 140.307 200.074 140.22 199.987C140.133 199.878 140.089 199.747 140.089 199.616L140.701 192.71C140.723 192.469 140.941 192.273 141.182 192.273H193.959C194.09 192.273 194.222 192.338 194.309 192.426C194.396 192.535 194.44 192.666 194.44 192.797L193.828 199.703C193.784 199.965 193.588 200.14 193.325 200.14ZM141.094 199.178H192.888L193.413 193.234H141.619L141.094 199.178Z" fill="black"/>
<path d="M136.089 211.22H126.692C126.561 211.22 126.43 211.154 126.343 211.067C126.255 210.958 126.211 210.827 126.211 210.696L126.823 203.79C126.845 203.549 127.064 203.353 127.304 203.353H136.701C136.833 203.353 136.964 203.418 137.051 203.506C137.139 203.615 137.182 203.746 137.182 203.877L136.57 210.783C136.548 211.023 136.352 211.22 136.089 211.22ZM127.217 210.258H135.652L136.177 204.314H127.741L127.217 210.258Z" fill="black"/>
<path d="M192.124 211.22H139.346C139.215 211.22 139.084 211.154 138.996 211.067C138.909 210.958 138.865 210.827 138.865 210.696L139.477 203.79C139.499 203.549 139.717 203.353 139.958 203.353H192.735C192.867 203.353 192.998 203.418 193.085 203.506C193.173 203.593 193.216 203.746 193.216 203.877L192.604 210.783C192.583 211.023 192.364 211.22 192.124 211.22ZM139.87 210.258H191.665L192.189 204.314H140.395L139.87 210.258Z" fill="black"/>
<path d="M134.888 222.169H125.49C125.359 222.169 125.228 222.103 125.141 222.016C125.053 221.907 125.009 221.776 125.009 221.644L125.621 214.739C125.643 214.498 125.862 214.302 126.102 214.302H135.499C135.631 214.302 135.762 214.367 135.849 214.455C135.937 214.564 135.98 214.695 135.98 214.826L135.368 221.732C135.346 221.972 135.128 222.169 134.888 222.169ZM126.015 221.207H134.45L134.975 215.263H126.539L126.015 221.207Z" fill="black"/>
<path d="M190.9 222.169H138.144C138.013 222.169 137.882 222.103 137.794 222.016C137.707 221.907 137.663 221.776 137.663 221.644L138.275 214.739C138.297 214.498 138.515 214.302 138.756 214.302H191.534C191.665 214.302 191.796 214.367 191.883 214.455C191.971 214.542 192.014 214.695 192.014 214.826L191.402 221.732C191.359 221.972 191.162 222.169 190.9 222.169ZM138.668 221.207H190.463L190.987 215.263H139.193L138.668 221.207Z" fill="black"/>
<path d="M134.188 232.768H124.791C124.66 232.768 124.529 232.703 124.441 232.615C124.354 232.528 124.31 232.375 124.31 232.244L124.922 225.338C124.944 225.098 125.162 224.901 125.403 224.901H134.8C134.931 224.901 135.062 224.966 135.15 225.054C135.237 225.163 135.281 225.294 135.281 225.425L134.669 232.331C134.647 232.572 134.451 232.768 134.188 232.768ZM125.315 231.807H133.751L134.276 225.862H125.84L125.315 231.807Z" fill="black"/>
<path d="M190.222 232.768H137.445C137.313 232.768 137.182 232.703 137.095 232.615C137.008 232.528 136.964 232.375 136.964 232.244L137.576 225.338C137.598 225.098 137.816 224.901 138.057 224.901H190.834C190.965 224.901 191.096 224.966 191.184 225.054C191.271 225.163 191.315 225.294 191.315 225.425L190.703 232.331C190.681 232.572 190.463 232.768 190.222 232.768ZM137.969 231.807H189.763L190.288 225.862H138.494L137.969 231.807Z" fill="black"/>
<path d="M132.986 243.717H123.589C123.458 243.717 123.327 243.652 123.239 243.564C123.152 243.455 123.108 243.324 123.108 243.193L123.72 236.287C123.742 236.046 123.961 235.85 124.201 235.85H133.598C133.729 235.85 133.86 235.915 133.948 236.003C134.035 236.112 134.079 236.243 134.079 236.374L133.467 243.28C133.445 243.542 133.227 243.717 132.986 243.717ZM124.114 242.756H132.549L133.074 236.811H124.638L124.114 242.756Z" fill="black"/>
<path d="M188.998 243.717H136.242C136.111 243.717 135.98 243.652 135.893 243.564C135.805 243.455 135.762 243.324 135.762 243.193L136.374 236.287C136.395 236.046 136.614 235.85 136.854 235.85H189.632C189.763 235.85 189.894 235.915 189.982 236.003C190.069 236.112 190.113 236.243 190.113 236.374L189.501 243.28C189.457 243.542 189.261 243.717 188.998 243.717ZM136.767 242.756H188.561L189.086 236.811H137.291L136.767 242.756Z" fill="black"/>
<path d="M131.85 264.741H122.453C122.321 264.741 122.19 264.675 122.103 264.588C122.015 264.479 121.972 264.348 121.972 264.217L122.584 257.311C122.606 257.07 122.824 256.874 123.064 256.874H132.462C132.593 256.874 132.724 256.939 132.811 257.027C132.899 257.114 132.943 257.267 132.943 257.398L132.331 264.304C132.309 264.544 132.09 264.741 131.85 264.741ZM122.977 263.779H131.413L131.937 257.835H123.502L122.977 263.779Z" fill="black"/>
<path d="M187.862 264.741H135.106C134.975 264.741 134.844 264.675 134.756 264.588C134.669 264.479 134.625 264.348 134.625 264.217L135.237 257.311C135.259 257.07 135.478 256.874 135.718 256.874H188.496C188.627 256.874 188.758 256.939 188.845 257.027C188.933 257.136 188.977 257.267 188.977 257.398L188.365 264.304C188.321 264.544 188.124 264.741 187.862 264.741ZM135.631 263.779H187.425L187.949 257.835H136.155L135.631 263.779Z" fill="black"/>
<path d="M130.626 275.821H121.229C121.097 275.821 120.966 275.755 120.879 275.668C120.792 275.581 120.748 275.428 120.748 275.296L121.36 268.391C121.382 268.15 121.6 267.953 121.841 267.953H131.238C131.369 267.953 131.5 268.019 131.587 268.106C131.675 268.216 131.719 268.347 131.719 268.478L131.107 275.384C131.085 275.624 130.888 275.821 130.626 275.821ZM121.753 274.838H130.189L130.713 268.893H122.278L121.753 274.838Z" fill="black"/>
<path d="M186.66 275.821H133.882C133.751 275.821 133.62 275.755 133.533 275.668C133.445 275.559 133.401 275.428 133.401 275.296L134.013 268.391C134.035 268.15 134.254 267.953 134.494 267.953H187.272C187.403 267.953 187.534 268.019 187.622 268.106C187.709 268.216 187.753 268.347 187.753 268.478L187.141 275.384C187.119 275.624 186.9 275.821 186.66 275.821ZM134.407 274.838H186.201L186.726 268.893H134.931L134.407 274.838Z" fill="black"/>
<path d="M129.424 286.77H120.027C119.896 286.77 119.764 286.704 119.677 286.617C119.59 286.508 119.546 286.376 119.546 286.245L120.158 279.339C120.18 279.099 120.398 278.902 120.639 278.902H130.036C130.167 278.902 130.298 278.968 130.385 279.055C130.473 279.165 130.517 279.296 130.517 279.427L129.905 286.333C129.883 286.573 129.664 286.77 129.424 286.77ZM120.551 285.808H128.987L129.511 279.864H121.076L120.551 285.808Z" fill="black"/>
<path d="M185.436 286.77H132.68C132.549 286.77 132.418 286.704 132.331 286.617C132.243 286.508 132.199 286.376 132.199 286.245L132.811 279.339C132.833 279.099 133.052 278.902 133.292 278.902H186.07C186.201 278.902 186.332 278.968 186.42 279.055C186.507 279.165 186.551 279.296 186.551 279.427L185.939 286.333C185.895 286.573 185.698 286.77 185.436 286.77ZM133.205 285.808H184.999L185.524 279.864H133.729L133.205 285.808Z" fill="black"/>
<path d="M128.725 297.369H119.327C119.196 297.369 119.065 297.304 118.978 297.216C118.89 297.107 118.847 296.976 118.847 296.845L119.458 289.939C119.48 289.698 119.699 289.502 119.939 289.502H129.337C129.468 289.502 129.599 289.567 129.686 289.655C129.774 289.764 129.817 289.895 129.817 290.026L129.205 296.932C129.184 297.172 128.987 297.369 128.725 297.369ZM119.852 296.408H128.288L128.812 290.463H120.376L119.852 296.408Z" fill="black"/>
<path d="M184.759 297.369H131.981C131.85 297.369 131.719 297.304 131.631 297.216C131.544 297.107 131.5 296.976 131.5 296.845L132.112 289.939C132.134 289.698 132.352 289.502 132.593 289.502H185.371C185.502 289.502 185.633 289.567 185.72 289.655C185.808 289.764 185.851 289.895 185.851 290.026L185.239 296.932C185.218 297.172 184.999 297.369 184.759 297.369ZM132.505 296.408H184.3L184.824 290.463H133.03L132.505 296.408Z" fill="black"/>
<path d="M127.523 308.318H118.125C117.994 308.318 117.863 308.252 117.776 308.165C117.688 308.056 117.645 307.925 117.645 307.793L118.257 300.888C118.278 300.647 118.497 300.45 118.737 300.45H128.135C128.266 300.45 128.397 300.516 128.484 300.603C128.572 300.713 128.615 300.844 128.615 300.975L128.003 307.881C127.982 308.121 127.763 308.318 127.523 308.318ZM118.65 307.356H127.086L127.61 301.412H119.174L118.65 307.356Z" fill="black"/>
<path d="M183.535 308.318H130.779C130.648 308.318 130.517 308.252 130.429 308.165C130.342 308.056 130.298 307.925 130.298 307.793L130.91 300.888C130.932 300.647 131.15 300.45 131.391 300.45H184.169C184.3 300.45 184.431 300.516 184.518 300.603C184.606 300.713 184.649 300.844 184.649 300.975L184.037 307.881C183.994 308.121 183.797 308.318 183.535 308.318ZM131.303 307.356H183.098L183.622 301.412H131.828L131.303 307.356Z" fill="black"/>
<path d="M208.012 264.588H198.614C198.483 264.588 198.352 264.522 198.265 264.435C198.177 264.326 198.134 264.195 198.134 264.063L198.745 257.158C198.767 256.917 198.986 256.72 199.226 256.72H208.624C208.755 256.72 208.886 256.786 208.973 256.873C209.061 256.961 209.104 257.114 209.104 257.245L208.492 264.151C208.471 264.391 208.274 264.588 208.012 264.588ZM199.161 263.605H207.596L208.121 257.66H199.685L199.161 263.605Z" fill="black"/>
<path d="M264.046 264.588H211.268C211.137 264.588 211.006 264.522 210.918 264.435C210.831 264.326 210.787 264.195 210.787 264.063L211.399 257.158C211.421 256.917 211.639 256.72 211.88 256.72H264.657C264.789 256.72 264.92 256.786 265.007 256.873C265.095 256.983 265.138 257.114 265.138 257.245L264.526 264.151C264.504 264.391 264.286 264.588 264.046 264.588ZM211.792 263.605H263.587L264.111 257.66H212.317L211.792 263.605Z" fill="black"/>
<path d="M206.81 275.646H197.412C197.281 275.646 197.15 275.581 197.063 275.493C196.975 275.406 196.931 275.253 196.931 275.122L197.543 268.216C197.565 267.975 197.784 267.779 198.024 267.779H207.421C207.553 267.779 207.684 267.844 207.771 267.932C207.859 268.041 207.902 268.172 207.902 268.303L207.29 275.209C207.268 275.449 207.05 275.646 206.81 275.646ZM197.937 274.685H206.372L206.897 268.74H198.461L197.937 274.685Z" fill="black"/>
<path d="M262.822 275.646H210.066C209.935 275.646 209.804 275.581 209.716 275.493C209.629 275.406 209.585 275.253 209.585 275.122L210.197 268.216C210.219 267.975 210.437 267.779 210.678 267.779H263.456C263.587 267.779 263.718 267.844 263.805 267.932C263.893 268.041 263.936 268.172 263.936 268.303L263.324 275.209C263.281 275.449 263.084 275.646 262.822 275.646ZM210.59 274.685H262.385L262.909 268.74H211.115L210.59 274.685Z" fill="black"/>
<path d="M205.586 286.595H196.188C196.057 286.595 195.926 286.53 195.839 286.442C195.751 286.355 195.708 286.202 195.708 286.071L196.32 279.165C196.341 278.924 196.56 278.728 196.8 278.728H206.198C206.329 278.728 206.46 278.793 206.547 278.881C206.635 278.99 206.678 279.121 206.678 279.252L206.067 286.158C206.045 286.42 205.848 286.595 205.586 286.595ZM196.735 285.634H205.171L205.695 279.689H197.259L196.735 285.634Z" fill="black"/>
<path d="M261.62 286.617H208.842C208.711 286.617 208.58 286.551 208.492 286.464C208.405 286.355 208.361 286.223 208.361 286.092L208.973 279.186C208.995 278.946 209.213 278.749 209.454 278.749H262.232C262.363 278.749 262.494 278.815 262.581 278.902C262.669 278.99 262.712 279.143 262.712 279.274L262.1 286.18C262.079 286.42 261.86 286.617 261.62 286.617ZM209.366 285.633H261.161L261.685 279.689H209.891L209.366 285.633Z" fill="black"/>
<path d="M204.908 297.194H195.511C195.38 297.194 195.249 297.129 195.161 297.041C195.074 296.932 195.03 296.801 195.03 296.67L195.642 289.764C195.664 289.523 195.883 289.327 196.123 289.327H205.52C205.651 289.327 205.782 289.392 205.87 289.48C205.957 289.589 206.001 289.72 206.001 289.851L205.389 296.757C205.367 297.019 205.149 297.194 204.908 297.194ZM196.036 296.233H204.471L204.996 290.288H196.56L196.036 296.233Z" fill="black"/>
<path d="M260.92 297.194H208.143C208.012 297.194 207.88 297.129 207.793 297.041C207.706 296.932 207.662 296.801 207.662 296.67L208.274 289.764C208.296 289.523 208.514 289.327 208.755 289.327H261.532C261.663 289.327 261.795 289.392 261.882 289.48C261.969 289.589 262.013 289.72 262.013 289.851L261.401 296.757C261.379 297.019 261.183 297.194 260.92 297.194ZM208.689 296.233H260.483L261.008 290.288H209.214L208.689 296.233Z" fill="black"/>
<path d="M203.685 308.165H194.287C194.156 308.165 194.025 308.1 193.938 308.012C193.85 307.903 193.806 307.772 193.806 307.641L194.418 300.735C194.44 300.494 194.659 300.298 194.899 300.298H204.296C204.428 300.298 204.559 300.363 204.646 300.451C204.734 300.538 204.777 300.691 204.777 300.822L204.165 307.728C204.143 307.968 203.947 308.165 203.685 308.165ZM194.834 307.204H203.269L203.794 301.259H195.358L194.834 307.204Z" fill="black"/>
<path d="M259.718 308.165H206.941C206.81 308.165 206.678 308.1 206.591 308.012C206.504 307.903 206.46 307.772 206.46 307.641L207.072 300.735C207.094 300.494 207.312 300.298 207.553 300.298H260.33C260.461 300.298 260.593 300.363 260.68 300.451C260.767 300.56 260.811 300.691 260.811 300.822L260.199 307.728C260.177 307.968 259.959 308.165 259.718 308.165ZM207.465 307.204H259.26L259.784 301.259H207.99L207.465 307.204Z" fill="black"/>
<path d="M264.024 85.4059H155.627C151.213 85.4059 147.935 81.494 148.306 76.6861L149.289 64.0544C150.142 53.0836 158.993 44.189 169.067 44.189H257.009C267.083 44.189 274.536 53.0836 273.683 64.0544L272.7 76.6861C272.328 81.494 268.438 85.4059 264.024 85.4059Z" fill="black"/>
<path d="M264.024 85.8867H155.627C153.486 85.8867 151.497 85.0126 150.054 83.4391C148.437 81.6907 147.629 79.2212 147.825 76.6424L148.809 64.0107C149.683 52.8214 158.774 43.7083 169.068 43.7083H257.009C261.707 43.7083 266.056 45.6096 269.247 49.0625C272.809 52.9088 274.601 58.3942 274.164 64.0982L273.181 76.7298C272.787 81.7782 268.679 85.8867 264.024 85.8867ZM169.089 44.6698C159.277 44.6698 150.623 53.3896 149.792 64.0982L148.809 76.7298C148.634 79.0464 149.355 81.2537 150.776 82.8053C152.043 84.1821 153.77 84.9251 155.649 84.9251H264.046C268.22 84.9251 271.891 81.21 272.241 76.6424L273.224 64.0107C273.64 58.5909 271.957 53.3678 268.569 49.7181C265.554 46.4619 261.467 44.6698 257.03 44.6698H169.089Z" fill="black"/>
<path d="M261.336 85.4059H152.939C148.525 85.4059 145.247 81.494 145.618 76.6861L146.601 64.0544C147.454 53.0836 156.305 44.189 166.379 44.189H254.321C264.395 44.189 271.848 53.0836 270.995 64.0544L270.012 76.6861C269.64 81.494 265.75 85.4059 261.336 85.4059Z" fill="white"/>
<path d="M261.336 85.8867H152.939C150.797 85.8867 148.809 85.0126 147.366 83.4391C145.749 81.6907 144.94 79.2212 145.137 76.6424L146.121 64.0107C146.995 52.8214 156.086 43.7083 166.379 43.7083H254.32C259.019 43.7083 263.368 45.6096 266.559 49.0625C270.121 52.9088 271.913 58.3942 271.476 64.0982L270.492 76.7298C270.099 81.7782 265.99 85.8867 261.336 85.8867ZM166.379 44.6698C156.567 44.6698 147.913 53.3896 147.082 64.0982L146.099 76.7298C145.924 79.0464 146.645 81.2537 148.066 82.8053C149.333 84.1821 151.06 84.9251 152.939 84.9251H261.336C265.51 84.9251 269.181 81.21 269.531 76.6424L270.514 64.0107C270.929 58.5909 269.247 53.3678 265.859 49.7181C262.843 46.4619 258.757 44.6698 254.32 44.6698H166.379Z" fill="black"/>
<path d="M215.529 0.480713C204.209 0.480713 194.243 10.4899 193.282 22.8375L190.55 57.6948C190.244 61.6286 192.91 64.8193 196.516 64.8193H224.468C228.074 64.8193 231.243 61.6286 231.548 57.6948L234.28 22.8375C235.242 10.4899 226.85 0.480713 215.529 0.480713ZM213.628 24.8262C210.11 24.8262 207.487 21.7229 207.793 17.8766C208.099 14.0303 211.202 10.927 214.721 10.927C218.239 10.927 220.862 14.0303 220.556 17.8766C220.25 21.7011 217.147 24.8262 213.628 24.8262Z" fill="black"/>
<path d="M224.468 65.2783H196.516C194.746 65.2783 193.107 64.5571 191.905 63.2677C190.572 61.8253 189.894 59.7711 190.069 57.6512L192.801 22.7939C193.784 10.2277 203.99 0 215.529 0C220.796 0 225.67 2.14171 229.254 6.00989C233.253 10.337 235.264 16.478 234.761 22.8594L232.029 57.7168C231.701 61.8909 228.314 65.2783 224.468 65.2783ZM215.529 0.961581C204.471 0.961581 194.702 10.7959 193.763 22.8594L191.031 57.7168C190.878 59.5744 191.468 61.3664 192.626 62.6121C193.653 63.7048 195.03 64.3167 196.538 64.3167H224.49C227.833 64.3167 230.805 61.3227 231.089 57.6512L233.821 22.7939C234.302 16.6747 232.379 10.7959 228.576 6.66551C225.145 2.99402 220.534 0.961581 215.529 0.961581ZM213.628 25.3071C211.902 25.3071 210.284 24.6078 209.104 23.3402C207.793 21.9197 207.137 19.931 207.312 17.833C207.64 13.7463 210.962 10.4463 214.721 10.4463C216.447 10.4463 218.064 11.1456 219.245 12.4131C220.556 13.8337 221.211 15.8224 221.037 17.9204C220.709 21.9853 217.387 25.3071 213.628 25.3071ZM214.699 11.386C211.421 11.386 208.536 14.3145 208.252 17.8985C208.099 19.7124 208.667 21.4389 209.804 22.6627C210.787 23.7336 212.142 24.3237 213.606 24.3237C216.884 24.3237 219.769 21.3952 220.053 17.8111C220.206 15.9972 219.638 14.2708 218.502 13.0469C217.518 11.9761 216.163 11.386 214.699 11.386Z" fill="black"/>
<path d="M213.781 0.480713C202.461 0.480713 192.495 10.4899 191.534 22.8375L188.802 57.6948C188.496 61.6286 191.162 64.8193 194.768 64.8193H222.719C226.325 64.8193 229.494 61.6286 229.8 57.6948L232.532 22.8375C233.494 10.4899 225.102 0.480713 213.781 0.480713ZM211.88 24.8262C208.361 24.8262 205.739 21.7229 206.045 17.8766C206.351 14.0303 209.454 10.927 212.972 10.927C216.491 10.927 219.113 14.0303 218.808 17.8766C218.502 21.7011 215.398 24.8262 211.88 24.8262Z" fill="white"/>
<path d="M222.719 65.2783H194.768C192.998 65.2783 191.359 64.5571 190.157 63.2677C188.824 61.8253 188.146 59.7711 188.321 57.6512L191.053 22.7939C192.036 10.2277 202.242 0 213.781 0C219.048 0 223.921 2.14171 227.505 6.00989C231.505 10.337 233.515 16.478 233.013 22.8594L230.281 57.7168C229.953 61.8909 226.566 65.2783 222.719 65.2783ZM213.781 0.961581C202.723 0.961581 192.954 10.7959 192.014 22.8594L189.283 57.7168C189.13 59.5744 189.72 61.3664 190.878 62.6121C191.905 63.7048 193.282 64.3167 194.79 64.3167H222.741C226.085 64.3167 229.057 61.3227 229.341 57.6512L232.073 22.7939C232.554 16.6747 230.631 10.7959 226.828 6.66551C223.397 2.99402 218.786 0.961581 213.781 0.961581ZM211.88 25.3071C210.153 25.3071 208.536 24.6078 207.356 23.3402C206.045 21.9197 205.389 19.931 205.564 17.833C205.892 13.7463 209.214 10.4463 212.972 10.4463C214.699 10.4463 216.316 11.1456 217.496 12.4131C218.808 13.8337 219.463 15.8224 219.288 17.9204C218.96 21.9853 215.639 25.3071 211.88 25.3071ZM212.972 11.386C209.694 11.386 206.81 14.3145 206.526 17.8985C206.373 19.7124 206.941 21.4389 208.077 22.6627C209.061 23.7336 210.416 24.3237 211.88 24.3237C215.158 24.3237 218.043 21.3952 218.327 17.8111C218.48 15.9972 217.911 14.2708 216.775 13.0469C215.77 11.9761 214.437 11.386 212.972 11.386Z" fill="black"/>
<path d="M40.434 304.341C40.2811 304.341 40.1281 304.275 40.0407 304.122C28.8732 287.885 14.6243 261.813 10.1442 229.84C10.1005 229.578 10.2972 229.338 10.5594 229.294C10.8217 229.25 11.0621 229.447 11.1058 229.709C15.564 261.507 29.7255 287.448 40.8493 303.598C41.0023 303.816 40.9367 304.122 40.7181 304.275C40.6089 304.297 40.5215 304.341 40.434 304.341Z" fill="black"/>
<path d="M28.4361 303.379C28.2831 303.379 28.152 303.314 28.0646 303.183C27.9116 302.986 12.4607 282.705 7.17202 255.344C7.12831 255.082 7.28129 254.819 7.54354 254.776C7.80579 254.732 8.06804 254.907 8.11175 255.147C13.3567 282.268 28.6765 302.374 28.8295 302.571C28.9824 302.789 28.9606 303.095 28.742 303.248C28.6328 303.357 28.5454 303.379 28.4361 303.379Z" fill="black"/>
<path d="M336.689 40.2773C336.077 40.2773 335.487 40.1243 334.94 39.8402C334.044 39.3594 333.389 38.5508 333.105 37.5455C332.515 35.5131 333.651 33.3714 335.64 32.7595C336.601 32.4535 337.607 32.5628 338.503 33.0436C339.399 33.5244 340.054 34.333 340.338 35.3383C340.928 37.3707 339.792 39.5124 337.803 40.1243C337.432 40.2117 337.06 40.2773 336.689 40.2773ZM336.732 33.5462C336.448 33.5462 336.186 33.5899 335.924 33.6773C334.438 34.1363 333.585 35.7535 334.022 37.2833C334.241 38.0263 334.722 38.6382 335.399 38.9879C336.055 39.3376 336.798 39.4031 337.519 39.1846C339.005 38.7256 339.858 37.1084 339.42 35.5786C339.202 34.8356 338.721 34.2237 338.044 33.874C337.628 33.6555 337.191 33.5462 336.732 33.5462Z" fill="#3861FB"/>
<path d="M316.015 26.2907C315.752 26.2907 315.534 26.0721 315.534 25.8099C315.534 25.5476 315.752 25.3291 316.015 25.3291H318.681C318.943 25.3291 319.162 25.5476 319.162 25.8099C319.162 26.0721 318.943 26.2907 318.681 26.2907H316.015Z" fill="#3861FB"/>
<path d="M325.303 26.2907C325.041 26.2907 324.822 26.0721 324.822 25.8099C324.822 25.5476 325.041 25.3291 325.303 25.3291H327.969C328.231 25.3291 328.45 25.5476 328.45 25.8099C328.45 26.0721 328.231 26.2907 327.969 26.2907H325.303Z" fill="#3861FB"/>
<path d="M321.981 32.2787C321.718 32.2787 321.5 32.0601 321.5 31.7979V29.1317C321.5 28.8694 321.718 28.6509 321.981 28.6509C322.243 28.6509 322.461 28.8694 322.461 29.1317V31.7979C322.461 32.0601 322.243 32.2787 321.981 32.2787Z" fill="#3861FB"/>
<path d="M321.981 22.9689C321.718 22.9689 321.5 22.7503 321.5 22.4881V19.8219C321.5 19.5596 321.718 19.3411 321.981 19.3411C322.243 19.3411 322.461 19.5596 322.461 19.8219V22.4881C322.483 22.7503 322.265 22.9689 321.981 22.9689Z" fill="#3861FB"/>
<path d="M366.192 354.081L368.749 372.176L375.349 372.198L375.654 354.408L366.192 354.081Z" fill="white"/>
<path d="M375.348 372.679L368.749 372.657C368.508 372.657 368.311 372.482 368.268 372.241L365.689 354.168C365.667 354.037 365.711 353.884 365.798 353.775C365.886 353.665 366.039 353.622 366.17 353.622L375.654 353.95C375.917 353.95 376.135 354.168 376.113 354.43L375.807 372.22C375.829 372.46 375.611 372.679 375.348 372.679ZM369.186 371.695L374.89 371.717L375.174 354.889L366.738 354.605L369.186 371.695Z" fill="black"/>
<path d="M368.53 389.463C371.108 389.747 374.955 389.856 380.112 389.397C381.948 389.244 383.259 387.539 382.953 385.704C382.145 380.786 379.916 372.132 376.419 368.177L374.693 370.646L373.665 368.089C373.491 367.805 369.142 367.63 369.032 368.155L368.77 370.646L366.301 367.871L366.432 376.984C366.453 377.989 366.344 378.994 366.148 379.978L365.492 383.125C365.099 385.026 365.579 387.037 366.912 388.457C367.415 389.004 367.983 389.397 368.53 389.463Z" fill="white"/>
<path d="M373.534 390.184C371.371 390.184 369.688 390.075 368.486 389.943C367.852 389.878 367.197 389.484 366.541 388.807C365.142 387.321 364.574 385.157 365.011 383.059L365.667 379.912C365.864 378.951 365.951 377.989 365.951 377.028L365.82 367.914C365.82 367.718 365.929 367.521 366.126 367.455C366.322 367.39 366.519 367.434 366.65 367.587L368.399 369.553L368.552 368.133C368.639 367.63 369.207 367.521 369.426 367.477C370.06 367.368 373.687 367.215 374.059 367.871C374.081 367.893 374.081 367.914 374.103 367.936L374.802 369.663L376.026 367.914C376.113 367.783 376.244 367.718 376.397 367.718C376.55 367.718 376.681 367.761 376.791 367.871C381.271 372.941 383.238 384.371 383.456 385.638C383.631 386.643 383.347 387.692 382.735 388.501C382.101 389.31 381.205 389.812 380.178 389.9C377.599 390.096 375.392 390.184 373.534 390.184ZM366.781 369.138L366.891 376.962C366.913 378.011 366.803 379.038 366.607 380.065L365.951 383.212C365.579 385.004 366.06 386.84 367.24 388.108C367.721 388.61 368.18 388.916 368.573 388.96C370.781 389.2 374.561 389.375 380.069 388.894C380.812 388.829 381.467 388.457 381.948 387.867C382.407 387.277 382.604 386.512 382.495 385.747C381.773 381.355 379.719 373.072 376.463 368.92L375.086 370.887C374.977 371.04 374.802 371.105 374.627 371.083C374.452 371.061 374.299 370.952 374.234 370.777L373.272 368.395C372.573 368.22 370.147 368.177 369.469 368.352L369.229 370.624C369.207 370.821 369.076 370.974 368.901 371.04C368.726 371.105 368.53 371.04 368.399 370.908L366.781 369.138Z" fill="black"/>
<path d="M373.25 386.949C370.387 386.949 368.617 386.6 368.508 386.578C368.246 386.534 368.071 386.272 368.136 386.01C368.18 385.747 368.442 385.573 368.705 385.638C368.748 385.638 373.316 386.534 379.675 385.42C379.938 385.376 380.178 385.551 380.244 385.813C380.287 386.075 380.112 386.316 379.85 386.381C377.293 386.818 375.042 386.949 373.25 386.949Z" fill="black"/>
<path d="M377.119 380.022H371.13C370.868 380.022 370.65 379.803 370.65 379.541C370.65 379.279 370.868 379.06 371.13 379.06H377.119C377.381 379.06 377.599 379.279 377.599 379.541C377.599 379.803 377.381 380.022 377.119 380.022Z" fill="black"/>
<path d="M318.877 355.698L316.561 376.765L307.71 378.623L308.234 353.928L318.877 355.698Z" fill="white"/>
<path d="M307.71 379.104C307.6 379.104 307.491 379.06 307.404 378.994C307.294 378.907 307.229 378.754 307.229 378.623L307.775 353.906C307.775 353.775 307.841 353.644 307.95 353.534C308.059 353.447 308.19 353.403 308.343 353.425L318.986 355.195C319.249 355.239 319.423 355.479 319.38 355.72L317.063 376.787C317.041 376.984 316.888 377.159 316.692 377.202L307.819 379.06C307.775 379.104 307.732 379.104 307.71 379.104ZM308.715 354.496L308.19 378.033L316.124 376.372L318.353 356.091L308.715 354.496Z" fill="black"/>
<path d="M320.319 386.818C320.516 383.125 320.516 376.328 318.265 373.05L311.184 375.585V374.077C311.184 373.597 310.835 373.181 310.397 373.159L306.442 372.941C304.956 372.853 303.492 373.159 302.137 373.815C298.159 375.76 286.074 380.787 284.391 386.425C283.888 388.086 285.2 389.747 286.926 389.79C290.904 389.9 300.476 390.031 317.653 389.441C319.074 389.397 320.232 388.261 320.319 386.818Z" fill="white"/>
<path d="M294.859 390.359C291.21 390.359 288.609 390.315 286.905 390.271C285.899 390.249 284.96 389.747 284.391 388.938C283.823 388.151 283.648 387.19 283.932 386.272C285.462 381.092 295.056 376.612 300.192 374.186C300.869 373.881 301.459 373.596 301.94 373.356C303.361 372.657 304.934 372.329 306.486 372.416L310.441 372.635C311.141 372.679 311.687 373.29 311.687 374.034V374.864L318.134 372.569C318.331 372.504 318.571 372.569 318.702 372.744C321.019 376.132 321.041 383.016 320.844 386.818C320.757 388.501 319.402 389.834 317.719 389.878C307.6 390.271 300.126 390.359 294.859 390.359ZM305.961 373.378C304.738 373.378 303.492 373.662 302.355 374.23C301.875 374.471 301.285 374.755 300.607 375.061C295.952 377.246 286.271 381.792 284.872 386.534C284.697 387.146 284.807 387.823 285.2 388.348C285.615 388.916 286.271 389.266 286.97 389.288C291.144 389.397 300.673 389.528 317.675 388.938C318.855 388.894 319.817 387.976 319.882 386.775C320.079 383.212 320.079 376.875 318.112 373.618L311.381 376.022C311.228 376.066 311.075 376.044 310.944 375.957C310.813 375.869 310.747 375.716 310.747 375.563V374.055C310.747 373.837 310.594 373.64 310.42 373.618L306.464 373.4C306.245 373.4 306.092 373.378 305.961 373.378Z" fill="black"/>
<path d="M299.799 380.83C299.646 380.83 299.493 380.765 299.405 380.634C299.252 380.415 299.296 380.109 299.515 379.956L306.333 375.039C306.552 374.886 306.858 374.93 307.01 375.148C307.163 375.367 307.12 375.673 306.901 375.826L300.083 380.743C299.995 380.808 299.908 380.83 299.799 380.83Z" fill="black"/>
<path d="M317.654 210.106C317.654 210.106 303.405 306.111 306.115 364.308L310.07 364.702C312.212 364.92 314.354 364.964 316.495 364.855L320.254 364.658C337.147 266.14 341.431 261.485 344.709 250.623C344.709 250.623 363.547 340.203 364.334 361.489C364.334 361.489 373.491 362.407 377.119 361.096C379.085 340.553 379.632 319.267 379.741 305.914C380.025 267.691 376.376 250.339 374.365 242.1C372.529 234.539 370.562 228.398 369.12 224.245L364.312 210.521L317.654 210.106Z" fill="black"/>
<path d="M344.709 254.186C344.49 254.186 344.272 254.033 344.228 253.792L342.13 243.04C341.605 241.16 340.097 239.74 338.152 239.347L336.164 238.931C335.901 238.888 335.727 238.625 335.792 238.363C335.836 238.101 336.098 237.926 336.36 237.992L338.349 238.407C340.644 238.888 342.458 240.57 343.07 242.821L345.168 253.617C345.211 253.88 345.058 254.142 344.796 254.186C344.774 254.186 344.731 254.186 344.709 254.186Z" fill="white"/>
<path d="M369.819 236.789C369.798 236.789 369.776 236.789 369.732 236.789C360.51 235.26 357.1 229.206 356.051 226.693C355.942 226.452 356.073 226.168 356.314 226.059C356.554 225.95 356.838 226.081 356.947 226.321C357.931 228.703 361.143 234.386 369.885 235.85C370.147 235.893 370.322 236.134 370.278 236.396C370.257 236.615 370.038 236.789 369.819 236.789Z" fill="white"/>
<path d="M317.807 231.064C317.61 231.064 317.435 230.955 317.37 230.78C317.26 230.539 317.37 230.255 317.61 230.146C323.904 227.414 324.625 221.798 324.647 221.732C324.669 221.47 324.909 221.273 325.193 221.317C325.456 221.339 325.652 221.579 325.609 221.863C325.587 222.125 324.8 228.092 318.003 231.042C317.938 231.042 317.872 231.064 317.807 231.064Z" fill="white"/>
<path d="M329.083 131.671C337.541 131.868 355.549 132.611 367.612 135.386C371.262 136.217 376.288 139.211 378.758 142.008C386.057 150.269 399.519 168.124 399.541 187.334C399.541 190.131 397.399 192.469 394.602 192.71L379.763 193.934C379.763 193.934 382.429 217.361 381.424 221.208C380.419 225.054 367.612 230.08 353.473 222.606C342.436 216.771 328.34 210.259 317.413 212.51C317.304 212.532 316.211 221.011 316.124 221.011C312.715 221.033 306.639 219.547 307.36 214.848L312.278 190.612L293.527 185.476L291.888 184.667C286.971 182.242 285.069 176.188 287.757 171.402C293.811 160.584 303.099 143.035 317.02 134.534C319.992 132.72 325.587 131.584 329.083 131.671Z" fill="white"/>
<path d="M368.311 226.955C363.831 226.955 358.63 225.884 353.232 223.021C342.327 217.252 328.471 210.892 317.785 212.925C317.675 213.58 317.435 215.329 317.216 216.771C316.561 221.492 316.561 221.492 316.08 221.513C313.982 221.535 309.917 220.945 307.885 218.607C306.967 217.536 306.595 216.247 306.836 214.782L311.666 190.961L293.352 185.957C293.33 185.957 293.286 185.935 293.264 185.935L291.625 185.126C289.112 183.902 287.276 181.739 286.446 179.095C285.615 176.428 285.9 173.631 287.276 171.183L288.216 169.501C294.248 158.661 303.383 142.27 316.714 134.141C319.861 132.217 325.587 131.125 329.061 131.212C338.393 131.431 355.789 132.196 367.7 134.949C371.437 135.823 376.55 138.861 379.086 141.724C386.887 150.553 399.956 168.211 400 187.355C400 190.393 397.64 192.95 394.602 193.212L380.244 194.392C380.637 197.889 382.779 217.733 381.839 221.36C381.489 222.759 379.894 224.158 377.49 225.229C375.13 226.234 371.961 226.955 368.311 226.955ZM322.068 211.57C332.208 211.57 344.075 217.077 353.669 222.169C363.154 227.195 372.005 226.562 377.119 224.311C379.195 223.393 380.659 222.169 380.921 221.098C381.883 217.383 379.282 194.239 379.239 193.999C379.217 193.868 379.26 193.737 379.348 193.649C379.435 193.54 379.544 193.496 379.676 193.475L394.515 192.251C397.05 192.032 399.017 189.891 399.017 187.355C398.973 168.539 386.057 151.078 378.342 142.358C375.917 139.604 371.043 136.698 367.459 135.889C355.636 133.157 338.306 132.392 329.018 132.174C325.63 132.086 320.101 133.201 317.195 134.971C304.082 142.97 295.035 159.229 289.047 169.981L288.107 171.664C286.883 173.871 286.621 176.406 287.364 178.81C288.107 181.214 289.768 183.159 292.041 184.274L293.636 185.061L312.343 190.175C312.583 190.24 312.736 190.481 312.693 190.743L307.775 214.979C307.601 216.115 307.885 217.143 308.606 217.995C310.092 219.7 313.217 220.508 315.665 220.552C315.796 219.831 316.036 218.104 316.233 216.64C316.867 212.116 316.867 212.116 317.26 212.051C318.834 211.723 320.429 211.57 322.068 211.57Z" fill="black"/>
<path d="M327.51 208.095L297.657 204.03C296.368 203.855 295.363 202.806 295.21 201.517L290.555 158.464C290.358 156.629 291.931 155.099 293.767 155.339L323.62 159.404C324.909 159.579 325.915 160.628 326.068 161.917L330.723 204.97C330.919 206.806 329.324 208.357 327.51 208.095Z" fill="#3861FB"/>
<path d="M292.98 176.909L293.417 181.258L297.198 180.559C299.274 180.165 301.307 179.554 303.252 178.701L305.503 177.718C307.185 176.997 309.087 178.002 309.458 179.794C310.245 183.597 309.152 189.628 295.646 191.661C288.194 192.797 287.386 183.312 289.003 178.33C289.418 177.062 290.183 176.319 290.904 175.882C291.756 175.358 292.871 175.904 292.98 176.909Z" fill="white"/>
<path d="M294.466 192.229C292.609 192.229 291.057 191.53 289.921 190.196C287.517 187.355 287.32 181.87 288.522 178.177C288.915 176.975 289.615 176.057 290.642 175.467C291.188 175.139 291.866 175.117 292.434 175.401C293.002 175.685 293.395 176.232 293.461 176.865L293.832 180.69L297.089 180.078C299.121 179.685 301.132 179.073 303.033 178.264L305.284 177.281C306.202 176.887 307.251 176.909 308.147 177.39C309.043 177.849 309.677 178.701 309.895 179.707C310.376 182.067 309.961 184.296 308.693 186.132C306.595 189.147 302.224 191.158 295.69 192.163C295.253 192.185 294.86 192.229 294.466 192.229ZM291.603 176.144C291.45 176.144 291.276 176.188 291.123 176.275C290.314 176.756 289.746 177.499 289.44 178.461C288.325 181.892 288.478 186.962 290.642 189.541C291.822 190.918 293.461 191.464 295.537 191.158C301.787 190.218 305.961 188.317 307.907 185.542C309.043 183.902 309.393 182.001 308.956 179.859C308.803 179.138 308.344 178.548 307.71 178.199C307.076 177.871 306.333 177.849 305.677 178.133L303.426 179.116C301.46 179.969 299.383 180.603 297.285 180.996L293.505 181.695C293.374 181.717 293.242 181.695 293.133 181.608C293.024 181.52 292.958 181.411 292.936 181.28L292.499 176.953C292.456 176.647 292.281 176.385 291.997 176.232C291.866 176.188 291.734 176.144 291.603 176.144Z" fill="black"/>
<path d="M365.296 162.223C366.585 163.95 368.093 165.501 369.819 166.813C375.589 171.227 389.379 181.914 392.679 185.607C396.875 190.306 398.929 192.12 393.706 202.041C385.183 218.192 362.149 170.615 362.149 170.615C362.149 170.615 353.429 170.987 352.533 163.272C352.533 163.272 347.987 163.491 346.239 162.442C344.906 161.633 345.299 159.229 347.222 159.229L359.767 158.617C361.493 158.552 363.154 159.339 364.181 160.715L365.296 162.223Z" fill="white"/>
<path d="M389.182 205.866C389.16 205.866 389.116 205.866 389.095 205.866C379.064 205.691 363.547 174.593 361.843 171.096C360.247 171.074 353.188 170.55 352.117 163.775C350.894 163.797 347.528 163.797 345.998 162.857C345.168 162.354 344.796 161.327 345.059 160.366C345.343 159.382 346.151 158.77 347.222 158.77L359.745 158.158C361.646 158.071 363.438 158.945 364.552 160.453L365.667 161.961C366.935 163.665 368.421 165.173 370.082 166.441C375.873 170.877 389.685 181.586 393.007 185.301L393.378 185.716C397.334 190.153 399.322 192.36 394.099 202.282C392.854 204.642 391.193 205.866 389.182 205.866ZM362.148 170.112C362.323 170.112 362.498 170.222 362.586 170.375C362.76 170.724 379.326 204.708 389.138 204.882C390.843 204.926 392.176 203.899 393.291 201.801C398.208 192.491 396.591 190.677 392.701 186.328L392.329 185.913C389.073 182.263 375.305 171.599 369.535 167.184C367.787 165.851 366.235 164.277 364.924 162.507L363.809 160.999C362.87 159.732 361.384 159.032 359.81 159.098L347.266 159.71C346.348 159.71 346.086 160.344 345.998 160.606C345.867 161.065 345.976 161.699 346.501 162.026C347.834 162.835 351.287 162.835 352.511 162.791C352.751 162.769 352.992 162.966 353.013 163.207C353.844 170.397 361.777 170.134 362.148 170.112C362.127 170.112 362.127 170.112 362.148 170.112Z" fill="black"/>
<path d="M334.087 134.49C334.087 134.49 337.3 132.982 336.535 127.759C336.535 127.737 336.535 127.716 336.557 127.694L334.481 115.696L347.222 112.396L349.669 125.574C350.303 128.961 352.554 131.846 355.745 133.092C356.575 133.419 357.515 133.704 358.52 133.922C359.613 134.162 357.952 136.654 354.565 137.615C346.391 139.954 340.469 139.276 334.481 137.441C332.754 136.938 332.492 135.343 334.087 134.49Z" fill="white"/>
<path d="M344.643 139.648C340.666 139.648 337.366 138.883 334.35 137.943C333.301 137.616 332.645 136.938 332.558 136.108C332.47 135.321 332.973 134.556 333.869 134.075C333.869 134.075 333.891 134.075 333.891 134.053C334.022 133.988 336.754 132.589 336.076 127.825C336.076 127.759 336.076 127.716 336.076 127.65L334.022 115.783C333.978 115.543 334.131 115.302 334.372 115.237L347.113 111.937C347.244 111.915 347.375 111.915 347.484 112.003C347.594 112.068 347.681 112.199 347.703 112.33L350.15 125.53C350.762 128.786 352.97 131.54 355.942 132.698C356.772 133.026 357.69 133.288 358.652 133.507C359.067 133.594 359.351 133.922 359.351 134.337C359.395 135.496 357.493 137.331 354.718 138.14C350.893 139.211 347.572 139.648 344.643 139.648ZM334.306 134.927C333.76 135.233 333.476 135.627 333.519 136.02C333.563 136.435 334 136.829 334.634 137.025C339.748 138.599 345.67 139.714 354.456 137.2C356.969 136.479 358.302 134.927 358.389 134.425C357.384 134.206 356.444 133.922 355.592 133.573C352.314 132.305 349.866 129.267 349.211 125.683L346.85 113.008L335.049 116.067L337.038 127.628C337.06 127.694 337.038 127.759 337.038 127.825C337.759 133.114 334.59 134.775 334.306 134.927Z" fill="black"/>
<path d="M334.306 88.4656C339.442 88.4219 340.928 94.0384 347.047 93.8417C349.845 93.7543 351.09 92.5305 353.691 93.3609C355.418 93.9073 358.04 95.4589 358.63 97.9066C359.395 101.032 356.029 102.212 353.385 108.812C351.527 113.445 351.79 116.33 349.845 116.92C347.9 117.51 346.61 114.887 344.425 115.368C341.606 116.002 341.912 120.832 339.114 122.689C337.344 123.869 333.345 124.241 327.138 120.832C326.133 120.285 325.652 119.083 326.024 117.991C326.483 116.592 327.073 114.822 327.772 113.183C331.138 105.359 334.066 103.698 333.148 101.6C331.728 98.3655 325.652 99.8734 324.778 97.2072C323.904 94.4536 329.04 88.5093 334.306 88.4656Z" fill="black"/>
<path d="M344.578 101.971L343.135 101.469C343.135 101.469 340.098 111.194 338.743 113.772C337.388 116.351 329.127 112.702 329.127 112.702L328.69 111.041L327.706 110.582C327.401 110.429 327.182 110.167 327.095 109.839C327.007 109.511 327.095 109.161 327.291 108.877C328.865 106.801 332.143 102.102 333.454 97.7971C333.454 97.7971 339.77 96.5077 344.578 101.971Z" fill="white"/>
<path d="M344.993 102.256C344.709 102.234 344.381 102.234 344.031 102.19C343.66 102.146 343.31 102.059 343.004 101.928L343.638 101.6C343.048 103.458 342.48 105.315 341.846 107.151C341.212 108.987 340.578 110.822 339.835 112.658C339.639 113.117 339.442 113.554 339.202 114.035C339.049 114.319 338.786 114.559 338.524 114.734C338.262 114.909 337.978 114.997 337.694 115.062C336.601 115.303 335.574 115.128 334.59 114.953C332.624 114.559 330.788 113.904 328.952 113.117C328.821 113.052 328.712 112.942 328.69 112.811C328.559 112.265 328.406 111.718 328.275 111.15L328.537 111.456C328.253 111.303 327.969 111.128 327.663 110.975C327.597 110.932 327.51 110.888 327.4 110.822C327.313 110.757 327.226 110.691 327.16 110.604C327.007 110.451 326.898 110.254 326.832 110.058C326.679 109.664 326.723 109.183 326.942 108.812C327.007 108.724 327.073 108.637 327.094 108.571L327.247 108.375L327.532 107.981C328.296 106.911 329.018 105.818 329.695 104.703C331.05 102.452 332.252 100.114 332.995 97.6662V97.6444C333.039 97.4695 333.192 97.3603 333.345 97.3166C334.459 97.1199 335.508 97.1417 336.579 97.251C337.65 97.3603 338.699 97.6225 339.704 97.994C340.71 98.3656 341.671 98.8682 342.545 99.502C342.982 99.8298 343.398 100.158 343.791 100.507C343.988 100.682 344.184 100.879 344.359 101.075L344.425 101.141C344.447 101.163 344.49 101.228 344.534 101.272C344.6 101.36 344.687 101.469 344.753 101.6C344.927 101.84 344.949 102.081 344.993 102.256ZM344.184 101.709C344.053 101.687 343.9 101.731 343.857 101.797C343.835 101.819 343.813 101.84 343.813 101.84C343.813 101.84 343.813 101.84 343.791 101.819L343.725 101.753C343.551 101.578 343.376 101.403 343.179 101.25C342.808 100.922 342.414 100.617 342.021 100.332C341.212 99.7642 340.338 99.2834 339.398 98.9338C338.48 98.5841 337.497 98.3437 336.514 98.2344C335.53 98.1252 334.503 98.1252 333.563 98.2781L333.935 97.9503C333.52 99.2397 332.973 100.464 332.361 101.666C331.749 102.846 331.072 104.004 330.351 105.118C329.63 106.233 328.865 107.326 328.078 108.397L327.772 108.79L327.619 108.987C327.553 109.052 327.532 109.118 327.488 109.162C327.379 109.358 327.335 109.62 327.422 109.839C327.466 109.948 327.532 110.036 327.619 110.123C327.663 110.167 327.706 110.189 327.772 110.211C327.816 110.232 327.881 110.254 327.969 110.276C328.275 110.385 328.602 110.495 328.908 110.626C329.04 110.669 329.127 110.779 329.149 110.91V110.954C329.302 111.5 329.433 112.046 329.586 112.614L329.302 112.287C331.05 113.03 332.886 113.663 334.743 114.035C335.661 114.21 336.623 114.319 337.431 114.144C337.825 114.057 338.153 113.86 338.284 113.598C338.48 113.205 338.677 112.767 338.874 112.33C339.595 110.56 340.229 108.724 340.863 106.889C341.474 105.053 342.108 103.217 342.676 101.36C342.764 101.097 343.026 100.966 343.288 101.032H343.31C343.485 101.097 343.594 101.163 343.704 101.294C343.835 101.381 343.988 101.556 344.184 101.709Z" fill="black"/>
<path d="M342.677 109.052C342.677 109.052 345.561 104.266 347.441 106.036C349.342 107.806 346.042 113.008 342.677 109.052Z" fill="white"/>
<path d="M76.3621 127.606C77.3237 127.213 80.8422 126.142 82.9839 122.886C84.5137 120.569 85.6501 116.723 83.9236 114.363C83.4865 113.773 82.0879 112.199 75.4005 112.461C66.9648 112.811 61.0205 115.608 61.0205 115.608C47.2305 122.099 44.3239 130.119 33.0909 136.348C18.689 144.347 11.6739 137.528 5.42357 144.39C-4.7386 155.536 -0.870421 186.088 19.148 198.545C32.6538 206.959 53.8086 207.199 63.3807 196.643C78.9846 179.444 64.7138 132.37 76.3621 127.606Z" fill="#3861FB"/>
<path d="M81.9351 362.582L81.4325 380.808L75.0073 381.508L71.8167 361.883L81.9351 362.582Z" fill="white"/>
<path d="M75.0073 381.988C74.7669 381.988 74.5702 381.814 74.5265 381.573L71.3358 361.948C71.3139 361.795 71.3576 361.664 71.445 361.555C71.5543 361.445 71.6854 361.38 71.8384 361.402L81.9569 362.101C82.2191 362.123 82.4158 362.341 82.4158 362.604L81.935 380.83C81.935 381.071 81.7383 381.267 81.4979 381.289L75.051 381.988C75.0291 381.988 75.0291 381.988 75.0073 381.988ZM72.3848 362.407L75.4006 380.983L80.9734 380.371L81.4324 363.019L72.3848 362.407Z" fill="black"/>
<path d="M118.453 368.57L119.48 383.081L110.979 383.78L107.941 368.57H118.453Z" fill="white"/>
<path d="M110.979 384.261C110.76 384.261 110.542 384.108 110.498 383.868L107.46 368.657C107.439 368.526 107.46 368.373 107.57 368.264C107.657 368.155 107.788 368.089 107.941 368.089H118.453C118.715 368.089 118.912 368.286 118.934 368.526L119.961 383.037C119.983 383.3 119.786 383.54 119.524 383.562L111.023 384.261C111.001 384.261 111.001 384.261 110.979 384.261ZM108.531 369.051L111.372 383.278L118.978 382.666L118.016 369.073H108.531V369.051Z" fill="black"/>
<path d="M108.706 390.031C108.116 389.637 107.767 388.982 107.745 388.261C107.679 386.141 107.679 381.595 108.531 379.89C109.668 377.618 114.366 380.786 114.366 380.786C114.366 380.786 117.12 376.962 118.737 376.175C119.568 375.76 124.463 379.016 129.38 383.431C134.778 388.282 137.204 389.834 138.362 394.03C138.909 395.997 137.466 397.964 135.434 398.117C130.495 398.466 120.486 397.876 108.706 390.031Z" fill="white"/>
<path d="M133.27 398.663C127.807 398.663 118.803 397.308 108.444 390.424C107.723 389.943 107.286 389.135 107.264 388.282C107.198 385.835 107.22 381.442 108.116 379.672C108.378 379.169 108.794 378.82 109.362 378.667C110.957 378.251 113.317 379.541 114.279 380.131C115.022 379.125 117.142 376.437 118.541 375.738C119.961 375.017 126.146 379.869 129.708 383.081C130.56 383.846 131.325 384.523 132.046 385.157C135.893 388.545 137.838 390.249 138.843 393.899C139.127 394.97 138.93 396.084 138.297 397.002C137.641 397.942 136.614 398.51 135.478 398.597C134.822 398.641 134.079 398.663 133.27 398.663ZM110.039 379.563C109.886 379.563 109.733 379.584 109.58 379.606C109.296 379.694 109.1 379.847 108.947 380.109C108.378 381.267 108.094 384.218 108.204 388.261C108.225 388.807 108.51 389.331 108.947 389.637C120.617 397.396 130.517 397.986 135.39 397.636C136.221 397.57 136.985 397.133 137.488 396.456C137.969 395.778 138.122 394.948 137.903 394.161C136.964 390.774 135.215 389.244 131.391 385.878C130.67 385.245 129.905 384.567 129.052 383.802C123.742 379.016 119.721 376.634 118.956 376.634C118.934 376.634 118.934 376.634 118.912 376.634C117.71 377.224 115.503 380.043 114.76 381.092C114.607 381.311 114.323 381.355 114.104 381.202C113.383 380.699 111.372 379.563 110.039 379.563Z" fill="black"/>
<path d="M130.954 394.729C125.796 394.729 117.382 393.506 109.231 387.015C109.012 386.84 108.99 386.556 109.165 386.338C109.34 386.119 109.624 386.097 109.843 386.272C122.431 396.325 135.631 393.396 135.762 393.375C136.024 393.309 136.286 393.484 136.33 393.724C136.395 393.986 136.221 394.249 135.98 394.292C135.915 394.314 134.013 394.729 130.954 394.729Z" fill="black"/>
<path d="M84.4702 385.245L84.3828 375.257C84.3828 375.257 82.3722 372.22 79.6405 374.689C79.6405 374.689 77.1054 371.127 72.3849 375.563C72.3849 375.563 65.7631 387.911 62.8346 395.254C62.0479 397.221 63.4466 399.384 65.5664 399.428C68.6041 399.494 72.5379 399.341 74.2425 398.182C76.9087 396.368 81.4981 390.665 83.5087 388.086C84.1424 387.277 84.4921 386.272 84.4702 385.245Z" fill="white"/>
<path d="M66.7901 399.931C66.3967 399.931 65.9815 399.931 65.5662 399.909C64.408 399.887 63.359 399.319 62.7252 398.335C62.0914 397.374 61.9603 396.15 62.3974 395.079C65.304 387.802 71.9039 375.454 71.9695 375.345C71.9913 375.301 72.0351 375.257 72.0569 375.214C73.8708 373.509 75.6191 372.722 77.2363 372.875C78.4383 372.985 79.2469 373.597 79.684 374.012C80.4926 373.4 81.3231 373.138 82.1754 373.247C83.7707 373.444 84.7542 374.908 84.7979 374.973C84.8416 375.061 84.8853 375.148 84.8853 375.236L84.9727 385.223C84.9727 386.359 84.6012 387.474 83.9019 388.392C81.5416 391.43 77.1926 396.784 74.5264 398.576C73.1933 399.472 70.5927 399.931 66.7901 399.931ZM72.7781 375.869C72.2317 376.875 66.047 388.501 63.2715 395.451C62.9437 396.237 63.053 397.112 63.5119 397.833C63.9709 398.532 64.7358 398.947 65.5662 398.969C69.7185 399.057 72.7125 398.641 73.9801 397.811C76.6244 396.019 81.2575 390.228 83.137 387.824C83.7052 387.102 84.0111 386.185 83.9893 385.267L83.9019 375.432C83.6833 375.148 82.984 374.361 82.0443 374.23C81.3668 374.143 80.6674 374.427 79.9681 375.061C79.8588 375.148 79.7277 375.192 79.5966 375.192C79.4655 375.17 79.3343 375.104 79.2469 374.995C79.2251 374.952 78.5039 373.99 77.1271 373.859C75.8158 373.706 74.3516 374.405 72.7781 375.869Z" fill="black"/>
<path d="M79.6403 380.546C79.378 380.546 79.1595 380.328 79.1595 380.065V374.689C79.1595 374.427 79.378 374.208 79.6403 374.208C79.9025 374.208 80.1211 374.427 80.1211 374.689V380.065C80.1211 380.328 79.9025 380.546 79.6403 380.546Z" fill="black"/>
<path d="M121.054 369.379C121.054 369.379 123.48 332.729 119.502 299.773C115.525 266.817 100.708 219.743 100.708 219.743C100.708 219.743 84.7759 219.022 73.1714 220.574C61.5668 222.125 56.9775 220.53 56.9775 220.53C56.9775 220.53 48.3232 230.452 49.0226 249.093C49.7219 267.735 69.937 346.388 69.1721 364.855C69.1721 364.855 75.9687 368.264 84.7759 366.581L81.1263 260.567C81.1263 260.567 88.6878 282.399 92.2282 297.347C95.1129 309.542 100.139 317.409 100.139 317.409C100.139 317.409 99.9209 345.732 106.433 369.247C106.39 369.247 114.06 371.651 121.054 369.379Z" fill="black"/>
<path d="M108.291 330.063C108.138 330.063 107.985 329.997 107.898 329.844L102.325 321.737C102.172 321.518 102.237 321.212 102.456 321.059C102.674 320.906 102.98 320.972 103.133 321.19L108.706 329.298C108.859 329.517 108.794 329.823 108.575 329.976C108.488 330.019 108.4 330.063 108.291 330.063Z" fill="white"/>
<path d="M70.8549 310.351C68.9318 310.351 66.4623 309.979 64.4298 308.449C64.2113 308.296 64.1676 307.99 64.3205 307.772C64.4735 307.553 64.7795 307.509 64.998 307.662C68.604 310.351 73.8708 309.039 73.9145 309.039C74.1768 308.974 74.439 309.127 74.5046 309.389C74.5701 309.651 74.4172 309.913 74.1549 309.979C74.0456 310.023 72.6907 310.351 70.8549 310.351Z" fill="white"/>
<path d="M150.754 140.194C150.754 140.194 157.965 133.507 159.998 131.802C162.336 129.857 157.004 129.224 150.163 135.496L150.754 140.194Z" fill="white"/>
<path d="M150.754 140.675C150.688 140.675 150.644 140.675 150.579 140.653C150.404 140.588 150.295 140.435 150.273 140.26L149.683 135.561C149.661 135.408 149.726 135.255 149.836 135.146C154.556 130.819 158.796 129.595 160.304 130.098C160.85 130.272 160.981 130.644 161.025 130.841C161.112 131.278 160.872 131.737 160.304 132.196C158.293 133.878 151.147 140.5 151.06 140.566C150.994 140.631 150.863 140.675 150.754 140.675ZM150.666 135.692L151.103 139.211C152.961 137.484 158.009 132.851 159.692 131.453C159.932 131.256 160.02 131.103 160.063 131.037C159.473 130.666 155.627 131.234 150.666 135.692Z" fill="black"/>
<path d="M151.365 138.839C151.409 139.211 151.453 139.582 151.518 139.954C151.628 140.566 151.781 142.074 150.885 143.013C150.011 143.931 145.771 146.248 143.782 147.297C143.105 147.668 142.493 148.149 142.012 148.761C141.334 149.592 143.148 158.442 143.148 158.442L135.871 155.842C135.871 155.842 136.745 143.756 138.34 138.839C139.936 133.922 144.154 131.606 145.246 131.759C146.339 131.912 146.667 134.01 146.667 134.01C146.667 134.01 149.027 132.196 150.469 133.157C151.213 133.66 150.863 134.534 150.972 135.365L151.365 138.839Z" fill="white"/>
<path d="M143.148 158.945C143.105 158.945 143.039 158.945 142.995 158.923L135.718 156.323C135.521 156.257 135.39 156.06 135.39 155.842C135.434 155.339 136.286 143.647 137.882 138.73C139.521 133.704 143.826 131.103 145.312 131.321C146.273 131.453 146.754 132.523 146.973 133.266C147.847 132.742 149.508 131.977 150.732 132.808C151.475 133.31 151.453 134.075 151.431 134.687C151.431 134.927 151.409 135.146 151.453 135.364L151.846 138.817C151.89 139.167 151.934 139.539 151.999 139.888C152.13 140.566 152.283 142.27 151.234 143.363C150.382 144.281 146.82 146.248 144.001 147.756C143.367 148.084 142.821 148.543 142.383 149.089C142.099 149.701 142.799 154.399 143.629 158.377C143.673 158.552 143.607 158.727 143.476 158.836C143.367 158.901 143.258 158.945 143.148 158.945ZM136.374 155.536L142.493 157.721C141.815 154.29 140.963 149.286 141.619 148.477C142.143 147.821 142.799 147.297 143.542 146.882C147.344 144.871 149.945 143.298 150.535 142.686C151.278 141.899 151.147 140.566 151.038 140.041C150.972 139.648 150.928 139.276 150.885 138.905L150.491 135.452C150.448 135.168 150.469 134.884 150.469 134.621C150.491 134.009 150.469 133.769 150.185 133.572C149.071 132.808 146.973 134.381 146.951 134.403C146.82 134.512 146.645 134.534 146.47 134.468C146.317 134.403 146.208 134.272 146.164 134.097C146.055 133.398 145.64 132.327 145.159 132.261C144.285 132.152 140.285 134.359 138.778 139.014C137.379 143.341 136.527 153.482 136.374 155.536Z" fill="black"/>
<path d="M144.809 143.669C144.656 143.669 144.503 143.647 144.35 143.604C143.454 143.363 142.471 142.314 142.383 140.107C142.252 136.807 146.361 133.66 146.536 133.529C146.754 133.376 147.06 133.419 147.213 133.616C147.366 133.835 147.322 134.141 147.126 134.294C147.082 134.316 143.258 137.266 143.367 140.063C143.432 141.637 144.044 142.511 144.634 142.664C145.006 142.773 145.356 142.598 145.618 142.183C146.448 140.894 146.273 139.582 146.273 139.582C146.23 139.32 146.426 139.08 146.689 139.036C146.951 138.992 147.191 139.167 147.235 139.429C147.235 139.495 147.475 141.112 146.426 142.707C145.989 143.319 145.421 143.669 144.809 143.669Z" fill="black"/>
<path d="M144.656 156.913C141.553 155.186 137.379 153.875 133.598 153.045C132.855 155.842 133.511 153.744 131.784 158.246C128.44 166.987 126.758 171.358 123.72 172.036C119.983 172.866 115.109 168.364 111.46 161.786L107.417 157.109C105.1 154.443 102.128 152.433 98.7625 151.296C89.2778 150.466 81.2355 150.859 75.1163 151.493C67.1396 152.323 61.1297 153.744 58.6602 154.378C52.6284 155.886 42.9908 159.513 42.9908 159.513C42.9908 159.513 17.4651 174.374 17.9459 198.217C18.4267 222.06 33.4842 229.906 33.4842 229.906L41.9636 218.235C41.9636 218.235 26.1194 200.927 49.5252 185.126C48.5636 195.791 45.351 223.765 48.3887 227.174C50.2682 229.294 54.1145 228.922 61.6979 228.092C73.5428 226.78 75.5753 224.114 83.2242 223.371C96.8612 222.038 102.478 229.337 107.351 225.972C110.323 223.939 112.771 218.126 108.356 200.184C107.307 195.223 106.28 190.218 105.275 185.192C116.311 193.234 127.479 195.813 134.057 191.573C138.144 188.929 139.979 183.968 141.531 179.772C145.312 169.632 145.574 161.502 144.656 156.913Z" fill="white"/>
<path d="M33.5061 230.386C33.4405 230.386 33.3531 230.364 33.2875 230.343C33.1346 230.255 17.9459 222.082 17.487 198.239C17.0062 174.396 42.51 159.251 42.7722 159.12C42.7941 159.098 42.8159 159.098 42.8378 159.076C42.9252 159.033 52.5629 155.427 58.5509 153.919C63.7304 152.629 69.4343 151.624 75.0726 151.034C82.8964 150.225 90.8732 150.138 98.8062 150.837C98.85 150.837 98.8937 150.859 98.9155 150.859C102.347 152.017 105.406 154.094 107.766 156.825L111.809 161.502C111.831 161.524 111.853 161.546 111.875 161.59C115.59 168.299 120.311 172.32 123.611 171.599C126.408 170.987 128.047 166.682 131.325 158.115C131.893 156.629 132.199 155.864 132.396 155.405C132.658 154.727 132.658 154.727 132.833 154.05C132.899 153.788 132.986 153.46 133.117 152.957C133.183 152.717 133.445 152.564 133.685 152.607C136.264 153.176 141.138 154.443 144.875 156.519C145.006 156.585 145.093 156.716 145.115 156.847C145.574 159.076 146.667 167.337 141.99 179.991C140.46 184.143 138.537 189.301 134.319 192.032C127.785 196.25 117.011 194.065 105.996 186.35C107.023 191.486 107.963 195.988 108.837 200.14C112.443 214.782 112.028 223.393 107.613 226.431C105.078 228.179 102.347 227.261 98.8718 226.103C95.0473 224.814 90.2613 223.218 83.2679 223.917C79.8587 224.245 77.6077 224.966 75.0071 225.797C71.8601 226.802 68.276 227.939 61.7635 228.66C54.2675 229.49 50.1371 229.949 48.0609 227.589C45.4822 224.704 46.9245 207.418 48.6073 189.956C48.7384 188.579 48.8695 187.312 48.9788 186.175C41.9855 191.114 38.0736 196.665 37.3524 202.675C36.3253 211.264 42.2914 217.908 42.357 217.973C42.51 218.148 42.5318 218.388 42.4007 218.585L33.9213 230.255C33.7902 230.321 33.6591 230.386 33.5061 230.386ZM43.2093 159.95C42.1603 160.584 17.9678 175.336 18.4267 198.217C18.842 219.416 31.1021 227.895 33.3531 229.294L41.3517 218.301C40.1497 216.88 35.4074 210.63 36.369 202.566C37.1557 196.01 41.4828 190.022 49.2629 184.777C49.4159 184.667 49.6126 184.667 49.7874 184.755C49.9404 184.842 50.0497 185.017 50.0278 185.214C49.8967 186.569 49.7437 188.186 49.5689 190.022C48.4106 201.932 46.247 224.092 48.7821 226.912C50.4649 228.813 53.9616 228.507 61.6761 227.655C68.1012 226.955 71.6415 225.819 74.7448 224.835C77.411 223.983 79.6839 223.262 83.2024 222.912C90.4143 222.191 95.5063 223.896 99.2215 225.141C102.674 226.3 104.969 227.065 107.111 225.6C111.11 222.847 111.372 214.345 107.941 200.315C107.002 195.835 105.996 190.94 104.86 185.301C104.816 185.105 104.904 184.908 105.078 184.799C105.253 184.689 105.45 184.689 105.625 184.82C116.661 192.863 127.479 195.31 133.86 191.18C137.816 188.623 139.586 183.837 141.138 179.619C145.574 167.599 144.722 159.688 144.263 157.219C141.684 155.82 138.056 154.552 133.991 153.613C133.926 153.875 133.882 154.072 133.838 154.247C133.642 154.99 133.642 154.99 133.358 155.733C133.161 156.192 132.855 156.956 132.309 158.421C128.899 167.315 127.195 171.774 123.895 172.517C120.136 173.347 115.131 169.26 111.154 162.092L107.133 157.459C104.882 154.858 101.997 152.913 98.7625 151.799C90.9169 151.121 83.0057 151.187 75.2693 151.996C69.6747 152.586 63.9926 153.569 58.8787 154.858C53.0437 156.279 43.8868 159.688 43.2093 159.95Z" fill="black"/>
<path d="M40.6526 220.093L48.8042 227.502L52.8035 221.077L64.2769 218.235C64.2769 218.235 63.8398 221.361 57.9392 222.126L67.4458 221.907C67.4458 221.907 66.0252 224.595 60.1028 224.267L66.2001 225.316C66.2001 225.316 62.2445 226.212 60.3432 227.021C58.4419 227.851 58.4419 227.851 58.4419 227.851C58.4419 227.851 56.4968 229.053 55.2293 230.518C53.9618 231.982 51.9075 233.599 49.1538 234.08C46.4002 234.561 34.6646 228.551 34.6646 228.551L40.6526 220.093Z" fill="white"/>
<path d="M48.804 234.582C45.4603 234.582 35.5823 229.556 34.424 228.966C34.2929 228.9 34.2055 228.791 34.1836 228.66C34.1399 228.529 34.1836 228.376 34.2492 228.266L40.2809 219.831C40.3683 219.721 40.4776 219.656 40.6306 219.634C40.7617 219.612 40.9147 219.656 41.0021 219.765L48.7166 226.78L52.41 220.836C52.4755 220.727 52.5848 220.661 52.6941 220.617L64.1675 217.776C64.3205 217.733 64.4953 217.776 64.6046 217.886C64.7138 217.995 64.7794 218.148 64.7575 218.301C64.7357 218.41 64.4297 220.268 61.7854 221.557L67.4456 221.426C67.5986 221.426 67.7734 221.513 67.8608 221.645C67.9482 221.798 67.9483 221.972 67.8827 222.125C67.839 222.213 66.9867 223.764 64.0801 224.442L66.2873 224.813C66.5059 224.857 66.6807 225.054 66.6807 225.272C66.6807 225.513 66.5277 225.709 66.3092 225.753C66.2655 225.753 62.3754 226.649 60.5397 227.436L58.6602 228.245C58.4198 228.398 56.7152 229.49 55.5788 230.78C54.5735 231.938 52.41 233.927 49.2193 234.495C49.0881 234.56 48.957 234.582 48.804 234.582ZM35.3419 228.354C38.9041 230.146 47.012 233.948 49.0444 233.599C51.951 233.096 53.9179 231.26 54.8358 230.19C56.147 228.703 58.0702 227.501 58.1576 227.436C58.1795 227.414 58.2013 227.414 58.2232 227.392L60.1245 226.562C61.1079 226.147 62.5721 225.709 63.8178 225.382L59.9933 224.726C59.7311 224.682 59.5563 224.442 59.6 224.202C59.6218 223.939 59.8622 223.764 60.1026 223.764C63.5774 223.961 65.3913 223.065 66.2873 222.388L57.9391 222.562C57.6768 222.562 57.4583 222.366 57.4583 222.125C57.4364 221.863 57.6331 221.645 57.8735 221.601C61.5231 221.12 62.9218 219.765 63.4682 218.891L53.1093 221.448L49.2193 227.72C49.1537 227.851 49.0226 227.917 48.8696 227.939C48.7166 227.96 48.5855 227.917 48.4762 227.807L40.7399 220.77L35.3419 228.354Z" fill="black"/>
<path d="M83.3116 152.061C80.3176 151.58 78.154 148.892 78.307 145.855L78.5474 141.134C81.3885 140.915 83.7706 139.561 83.7487 138.664C83.7487 138.227 82.6997 133.944 82.0441 132.174C82.5904 131.715 83.2679 130.491 82.0878 129.726C80.9077 128.961 78.2196 124.153 78.2196 124.153C74.9196 120.329 73.9799 125.727 71.5104 126.164C69.8058 126.47 68.8879 127.519 69.5217 129.748C70.1554 131.977 68.9316 130.863 67.6859 130.229C66.4402 129.595 65.5879 130.098 66.2654 132.108C66.9429 134.141 69.4561 135.343 69.4561 135.343L70.6362 137.681L68.123 149.154C67.6422 151.318 66.0906 153.088 63.9926 153.831L60.5396 155.055L78.6785 164.54L87.4421 152.739L83.3116 152.061Z" fill="white"/>
<path d="M78.7443 165.021C78.6787 165.021 78.5913 164.999 78.5257 164.955L60.3868 155.47C60.212 155.383 60.1246 155.208 60.1246 155.011C60.1464 154.815 60.2557 154.662 60.4524 154.596L63.9053 153.372C65.8504 152.673 67.2709 151.056 67.7079 149.045L70.1775 137.747L69.1285 135.714C68.5603 135.408 66.4841 134.184 65.8285 132.261C65.4133 131.059 65.4788 130.207 65.9815 129.77C66.2437 129.551 66.8338 129.245 67.9046 129.792C68.145 129.901 68.3636 130.054 68.604 130.163C68.7788 130.273 69.0192 130.404 69.2159 130.491C69.194 130.36 69.1503 130.163 69.0629 129.857C68.7132 128.677 68.7788 127.694 69.2159 126.973C69.6311 126.295 70.3742 125.858 71.4232 125.661C72.1443 125.53 72.7781 124.787 73.39 124.088C74.1549 123.192 74.9417 122.274 76.0562 122.274C76.8648 122.274 77.6953 122.777 78.5695 123.804C78.5913 123.826 78.6132 123.847 78.635 123.891C79.6403 125.705 81.5416 128.786 82.3284 129.289C83.0058 129.726 83.1807 130.294 83.2025 130.688C83.2462 131.3 82.9403 131.89 82.5906 132.283C83.2462 134.206 84.2078 138.14 84.2078 138.643C84.2078 139.888 81.782 141.243 78.9847 141.571L78.7661 145.876C78.6132 148.674 80.6019 151.121 83.3555 151.58L87.5515 152.258C87.7263 152.28 87.8575 152.389 87.923 152.542C87.9886 152.695 87.9667 152.87 87.8575 153.001L79.094 164.802C79.0284 164.955 78.8754 165.021 78.7443 165.021ZM61.8073 155.121L78.5913 163.906L86.6336 153.066L83.2244 152.498C79.9681 151.974 77.6516 149.089 77.8264 145.789L78.0668 141.068C78.0887 140.828 78.2635 140.631 78.5039 140.61C81.4105 140.391 83.2681 139.036 83.2681 138.621C83.2462 138.206 82.2409 134.053 81.5853 132.283C81.5198 132.086 81.5635 131.868 81.7383 131.737C81.9568 131.54 82.2847 131.103 82.2628 130.71C82.241 130.469 82.1098 130.251 81.8257 130.076C80.6019 129.289 78.1979 125.049 77.8264 124.372C77.1489 123.607 76.5589 123.214 76.0781 123.214C75.4006 123.214 74.7887 123.935 74.1331 124.678C73.4119 125.508 72.6688 126.383 71.598 126.579C70.8331 126.71 70.3086 127.016 70.0463 127.431C69.7404 127.912 69.7404 128.612 70.0026 129.53C70.243 130.36 70.3304 130.994 69.8934 131.322C69.4344 131.693 68.8225 131.343 68.1232 130.928C67.9265 130.819 67.7079 130.688 67.4894 130.578C67.0305 130.338 66.7245 130.338 66.6371 130.426C66.5278 130.513 66.4404 130.928 66.7464 131.89C67.3583 133.704 69.6748 134.84 69.6967 134.862C69.7841 134.906 69.8715 134.993 69.9152 135.08L71.0953 137.419C71.139 137.528 71.1609 137.637 71.139 137.747L68.6258 149.22C68.1232 151.558 66.4623 153.46 64.1894 154.247L61.8073 155.121Z" fill="black"/>
<path d="M77.5424 141.746C75.4006 141.746 74.0676 140.194 73.6305 139.233C73.5212 138.992 73.6305 138.708 73.8709 138.599C74.1113 138.49 74.3954 138.599 74.5046 138.839C74.5483 138.949 75.7285 141.331 78.4602 140.675C78.7225 140.61 78.9847 140.763 79.0503 141.025C79.1159 141.287 78.941 141.549 78.7006 141.615C78.2635 141.702 77.892 141.746 77.5424 141.746Z" fill="black"/>
<path d="M157.987 378.405H163.932C165.046 378.405 165.942 377.508 165.942 376.394V349.033C165.942 347.918 165.046 347.022 163.932 347.022H157.987C156.873 347.022 155.977 347.918 155.977 349.033V376.394C155.977 377.508 156.895 378.405 157.987 378.405Z" fill="#3861FB"/>
<path d="M207.727 378.71H213.912C215.027 378.71 215.923 377.814 215.923 376.7V349.338C215.923 348.224 215.027 347.328 213.912 347.328H207.727C206.613 347.328 205.717 348.224 205.717 349.338V376.7C205.717 377.814 206.613 378.71 207.727 378.71Z" fill="#3861FB"/>
<path d="M159.436 368.677H212.148V357.072H159.436V368.677Z" fill="#3861FB"/>
<path d="M174.452 380.3H227.164V368.695H174.452V380.3Z" fill="white"/>
<path d="M227.178 380.765H174.465C174.203 380.765 173.985 380.546 173.985 380.284V368.679C173.985 368.417 174.203 368.198 174.465 368.198H227.178C227.44 368.198 227.658 368.417 227.658 368.679V380.284C227.658 380.568 227.44 380.765 227.178 380.765ZM174.946 379.803H226.675V369.16H174.924V379.803H174.946Z" fill="black"/>
<path d="M173.023 390.009H178.967C180.082 390.009 180.978 389.113 180.978 387.998V360.637C180.978 359.522 180.082 358.626 178.967 358.626H173.023C171.908 358.626 171.012 359.522 171.012 360.637V387.998C171.012 389.113 171.908 390.009 173.023 390.009Z" fill="white"/>
<path d="M178.967 390.49H173.023C171.646 390.49 170.532 389.375 170.532 387.998V360.637C170.532 359.26 171.646 358.146 173.023 358.146H178.967C180.344 358.146 181.459 359.26 181.459 360.637V387.998C181.459 389.375 180.344 390.49 178.967 390.49ZM173.023 359.129C172.171 359.129 171.493 359.806 171.493 360.659V388.02C171.493 388.872 172.171 389.55 173.023 389.55H178.967C179.82 389.55 180.497 388.872 180.497 388.02V360.659C180.497 359.806 179.82 359.129 178.967 359.129H173.023Z" fill="black"/>
<path d="M222.741 390.337H228.926C230.041 390.337 230.937 389.441 230.937 388.326V360.965C230.937 359.85 230.041 358.954 228.926 358.954H222.741C221.627 358.954 220.731 359.85 220.731 360.965V388.326C220.731 389.419 221.649 390.337 222.741 390.337Z" fill="white"/>
<path d="M228.926 390.818H222.741C221.364 390.818 220.25 389.703 220.25 388.326V360.965C220.25 359.588 221.364 358.473 222.741 358.473H228.926C230.303 358.473 231.417 359.588 231.417 360.965V388.326C231.417 389.703 230.303 390.818 228.926 390.818ZM222.741 359.435C221.889 359.435 221.211 360.112 221.211 360.965V388.326C221.211 389.178 221.889 389.856 222.741 389.856H228.926C229.778 389.856 230.456 389.178 230.456 388.326V360.965C230.456 360.112 229.778 359.435 228.926 359.435H222.741Z" fill="black"/>
</svg>
